<!-- Generator: Adobe Illustrator 21.1.0, SVG Export Plug-In  -->
<svg version="1.1"
	 xmlns="http://www.w3.org/2000/svg" xmlns:xlink="http://www.w3.org/1999/xlink" xmlns:a="http://ns.adobe.com/AdobeSVGViewerExtensions/3.0/"
	 x="0px" y="0px" width="1156.007px" height="14.44px" viewBox="0 0 1156.007 14.44"
	 style="enable-background:new 0 0 1156.007 14.44;" xml:space="preserve">
<style type="text/css">
	.st0{fill:#FFFFFF;}
</style>
<defs>
</defs>
<g>
	<path class="st0" d="M210.258,12.901h3.42V1.463h-3.42V0.152h4.94v12.749h3.42v1.311h-8.36V12.901z"/>
	<path class="st0" d="M237.143,14.212c-0.595,0-1.02-0.152-1.273-0.456c-0.253-0.304-0.412-0.684-0.475-1.14H235.3
		c-0.215,0.57-0.561,1.016-1.036,1.339s-1.111,0.484-1.909,0.484c-1.026,0-1.843-0.266-2.451-0.798s-0.912-1.26-0.912-2.185
		c0-0.912,0.333-1.615,0.998-2.109s1.739-0.741,3.221-0.741h2.09V7.644c0-0.718-0.203-1.256-0.608-1.615
		c-0.406-0.359-0.982-0.538-1.729-0.538c-0.659,0-1.197,0.13-1.615,0.389c-0.418,0.26-0.753,0.611-1.007,1.055l-1.026-0.76
		c0.126-0.253,0.297-0.501,0.513-0.744c0.215-0.243,0.481-0.457,0.798-0.644c0.316-0.187,0.677-0.334,1.083-0.444
		c0.405-0.109,0.855-0.164,1.349-0.164c1.153,0,2.068,0.292,2.746,0.876s1.017,1.396,1.017,2.437v5.408h1.368v1.311H237.143z
		 M232.621,13.167c0.393,0,0.75-0.047,1.074-0.143c0.323-0.095,0.604-0.221,0.845-0.38c0.241-0.158,0.428-0.348,0.561-0.57
		c0.133-0.222,0.2-0.459,0.2-0.713V9.747h-2.09c-0.912,0-1.577,0.126-1.995,0.38s-0.627,0.621-0.627,1.102v0.399
		c0,0.507,0.18,0.89,0.542,1.15C231.49,13.038,231.987,13.167,232.621,13.167z"/>
	<path class="st0" d="M273.812,12.616h-0.076c-0.634,1.216-1.641,1.824-3.021,1.824c-1.204,0-2.144-0.449-2.821-1.349
		c-0.678-0.899-1.017-2.16-1.017-3.781c0-1.621,0.338-2.881,1.017-3.781c0.677-0.899,1.618-1.349,2.821-1.349
		c1.38,0,2.387,0.608,3.021,1.824h0.076V0.152h1.52v14.06h-1.52V12.616z M271.304,13.091c0.342,0,0.665-0.044,0.969-0.133
		c0.304-0.088,0.57-0.218,0.798-0.39c0.228-0.171,0.409-0.38,0.542-0.627c0.133-0.247,0.2-0.535,0.2-0.864V7.543
		c0-0.329-0.067-0.618-0.2-0.864c-0.133-0.247-0.313-0.456-0.542-0.627c-0.228-0.171-0.494-0.3-0.798-0.389
		c-0.304-0.088-0.627-0.133-0.969-0.133c-0.887,0-1.574,0.27-2.062,0.808c-0.488,0.539-0.731,1.251-0.731,2.138v1.672
		c0,0.887,0.244,1.6,0.731,2.138S270.417,13.091,271.304,13.091z"/>
	<path class="st0" d="M286.751,12.901h3.534V5.719h-3.534V4.408h5.054v8.493h3.306v1.311h-8.36V12.901z M291.045,2.242
		c-0.444,0-0.754-0.092-0.931-0.276c-0.177-0.183-0.266-0.415-0.266-0.693V0.969c0-0.279,0.089-0.51,0.266-0.694
		C290.292,0.092,290.602,0,291.045,0c0.443,0,0.753,0.092,0.931,0.275c0.177,0.184,0.266,0.415,0.266,0.694v0.304
		c0,0.279-0.089,0.51-0.266,0.693C291.799,2.15,291.489,2.242,291.045,2.242z"/>
	<path class="st0" d="M305.314,12.901h3.306V5.719h-3.496V4.408h3.496V2.394c0-0.658,0.174-1.197,0.522-1.615
		c0.349-0.418,0.896-0.627,1.644-0.627h3.287v1.311h-3.933v2.945h3.933v1.311h-3.933v7.182h3.496v1.311h-8.322V12.901z"/>
	<path class="st0" d="M324.314,12.901h3.306V5.719h-3.496V4.408h3.496V2.394c0-0.658,0.174-1.197,0.522-1.615
		c0.349-0.418,0.896-0.627,1.644-0.627h3.287v1.311h-3.933v2.945h3.933v1.311h-3.933v7.182h3.496v1.311h-8.322V12.901z"/>
	<path class="st0" d="M347.607,14.44c-0.709,0-1.346-0.121-1.91-0.361c-0.563-0.241-1.045-0.586-1.444-1.036
		c-0.399-0.449-0.707-0.988-0.921-1.615c-0.216-0.627-0.323-1.327-0.323-2.1c0-0.785,0.111-1.495,0.333-2.128
		s0.529-1.175,0.921-1.625s0.865-0.795,1.416-1.036c0.551-0.241,1.162-0.361,1.833-0.361c0.659,0,1.257,0.12,1.795,0.361
		c0.539,0.241,0.998,0.573,1.378,0.998c0.38,0.424,0.671,0.928,0.874,1.511c0.202,0.583,0.304,1.222,0.304,1.919V9.69h-7.258v0.456
		c0,0.431,0.069,0.83,0.209,1.197c0.139,0.367,0.338,0.684,0.598,0.95s0.577,0.472,0.95,0.618s0.789,0.218,1.245,0.218
		c0.658,0,1.229-0.152,1.71-0.456c0.481-0.304,0.849-0.722,1.102-1.254l1.121,0.76c-0.292,0.659-0.776,1.2-1.454,1.625
		C349.409,14.228,348.583,14.44,347.607,14.44z M347.512,5.434c-0.418,0-0.804,0.076-1.159,0.228
		c-0.355,0.152-0.662,0.361-0.922,0.627s-0.462,0.58-0.608,0.94s-0.218,0.757-0.218,1.188V8.55h5.624V8.341
		c0-0.431-0.067-0.823-0.2-1.178c-0.133-0.354-0.317-0.662-0.551-0.921c-0.235-0.26-0.52-0.459-0.855-0.599
		C348.288,5.504,347.917,5.434,347.512,5.434z"/>
	<path class="st0" d="M362.199,12.901h2.869V5.719h-2.869V4.408h4.389v2.47h0.095c0.203-0.772,0.586-1.377,1.15-1.814
		c0.563-0.437,1.282-0.655,2.156-0.655h1.368v1.52h-1.843c-0.874,0-1.58,0.252-2.118,0.758c-0.539,0.505-0.808,1.168-0.808,1.99
		v4.225h3.8v1.311h-8.189V12.901z"/>
	<path class="st0" d="M385.607,14.44c-0.709,0-1.346-0.121-1.91-0.361c-0.563-0.241-1.045-0.586-1.444-1.036
		c-0.399-0.449-0.707-0.988-0.921-1.615c-0.216-0.627-0.323-1.327-0.323-2.1c0-0.785,0.111-1.495,0.333-2.128
		s0.529-1.175,0.921-1.625s0.865-0.795,1.416-1.036c0.551-0.241,1.162-0.361,1.833-0.361c0.659,0,1.257,0.12,1.795,0.361
		c0.539,0.241,0.998,0.573,1.378,0.998c0.38,0.424,0.671,0.928,0.874,1.511c0.202,0.583,0.304,1.222,0.304,1.919V9.69h-7.258v0.456
		c0,0.431,0.069,0.83,0.209,1.197c0.139,0.367,0.338,0.684,0.598,0.95s0.577,0.472,0.95,0.618s0.789,0.218,1.245,0.218
		c0.658,0,1.229-0.152,1.71-0.456c0.481-0.304,0.849-0.722,1.102-1.254l1.121,0.76c-0.292,0.659-0.776,1.2-1.454,1.625
		C387.409,14.228,386.583,14.44,385.607,14.44z M385.512,5.434c-0.418,0-0.804,0.076-1.159,0.228
		c-0.355,0.152-0.662,0.361-0.922,0.627s-0.462,0.58-0.608,0.94s-0.218,0.757-0.218,1.188V8.55h5.624V8.341
		c0-0.431-0.067-0.823-0.2-1.178c-0.133-0.354-0.317-0.662-0.551-0.921c-0.235-0.26-0.52-0.459-0.855-0.599
		C386.288,5.504,385.917,5.434,385.512,5.434z"/>
	<path class="st0" d="M400.598,14.212V4.408h1.52v1.596h0.076c0.101-0.24,0.228-0.472,0.38-0.693
		c0.152-0.221,0.339-0.415,0.561-0.58c0.222-0.165,0.484-0.297,0.789-0.399c0.304-0.101,0.659-0.152,1.064-0.152
		c1.026,0,1.849,0.326,2.47,0.979c0.62,0.652,0.931,1.574,0.931,2.765v6.289h-1.52V8.189c0-0.899-0.196-1.567-0.589-2.004
		s-0.969-0.656-1.729-0.656c-0.304,0-0.602,0.038-0.893,0.114s-0.551,0.19-0.779,0.342c-0.228,0.152-0.412,0.349-0.551,0.589
		c-0.139,0.241-0.209,0.52-0.209,0.836v6.802H400.598z"/>
	<path class="st0" d="M419.351,14.212v-1.481l6.327-7.012h-6.118V4.408h7.771v1.481l-6.327,7.012h6.517v1.311H419.351z"/>
	<path class="st0" d="M446.141,14.212c-0.595,0-1.02-0.152-1.273-0.456c-0.253-0.304-0.412-0.684-0.475-1.14h-0.095
		c-0.215,0.57-0.561,1.016-1.036,1.339s-1.111,0.484-1.909,0.484c-1.026,0-1.843-0.266-2.451-0.798s-0.912-1.26-0.912-2.185
		c0-0.912,0.333-1.615,0.998-2.109s1.739-0.741,3.221-0.741h2.09V7.644c0-0.718-0.203-1.256-0.608-1.615
		c-0.406-0.359-0.982-0.538-1.729-0.538c-0.659,0-1.197,0.13-1.615,0.389c-0.418,0.26-0.753,0.611-1.007,1.055l-1.026-0.76
		c0.126-0.253,0.297-0.501,0.513-0.744c0.215-0.243,0.481-0.457,0.798-0.644c0.316-0.187,0.677-0.334,1.083-0.444
		c0.405-0.109,0.855-0.164,1.349-0.164c1.153,0,2.068,0.292,2.746,0.876s1.017,1.396,1.017,2.437v5.408h1.368v1.311H446.141z
		 M441.619,13.167c0.393,0,0.75-0.047,1.074-0.143c0.323-0.095,0.604-0.221,0.845-0.38c0.241-0.158,0.428-0.348,0.561-0.57
		c0.133-0.222,0.2-0.459,0.2-0.713V9.747h-2.09c-0.912,0-1.577,0.126-1.995,0.38s-0.627,0.621-0.627,1.102v0.399
		c0,0.507,0.18,0.89,0.542,1.15C440.488,13.038,440.985,13.167,441.619,13.167z"/>
	<path class="st0" d="M480.91,14.212c-0.748,0-1.295-0.208-1.643-0.625c-0.349-0.417-0.523-0.954-0.523-1.611V5.719h-3.268V4.408
		h2.432c0.33,0,0.561-0.067,0.694-0.2c0.133-0.133,0.199-0.364,0.199-0.693V0.95h1.463v3.458h4.465v1.311h-4.465v7.182h4.465v1.311
		H480.91z"/>
	<path class="st0" d="M495.198,12.901h2.869V5.719h-2.869V4.408h4.389v2.47h0.095c0.203-0.772,0.586-1.377,1.15-1.814
		c0.563-0.437,1.282-0.655,2.156-0.655h1.368v1.52h-1.843c-0.874,0-1.58,0.252-2.118,0.758c-0.539,0.505-0.808,1.168-0.808,1.99
		v4.225h3.8v1.311h-8.189V12.901z"/>
	<path class="st0" d="M522.14,14.212c-0.595,0-1.02-0.152-1.273-0.456c-0.253-0.304-0.412-0.684-0.475-1.14h-0.095
		c-0.215,0.57-0.561,1.016-1.036,1.339s-1.111,0.484-1.909,0.484c-1.026,0-1.843-0.266-2.451-0.798s-0.912-1.26-0.912-2.185
		c0-0.912,0.333-1.615,0.998-2.109s1.739-0.741,3.221-0.741h2.09V7.644c0-0.718-0.203-1.256-0.608-1.615
		c-0.406-0.359-0.982-0.538-1.729-0.538c-0.659,0-1.197,0.13-1.615,0.389c-0.418,0.26-0.753,0.611-1.007,1.055l-1.026-0.76
		c0.126-0.253,0.297-0.501,0.513-0.744c0.215-0.243,0.481-0.457,0.798-0.644c0.316-0.187,0.677-0.334,1.083-0.444
		c0.405-0.109,0.855-0.164,1.349-0.164c1.153,0,2.068,0.292,2.746,0.876s1.017,1.396,1.017,2.437v5.408h1.368v1.311H522.14z
		 M517.618,13.167c0.393,0,0.75-0.047,1.074-0.143c0.323-0.095,0.604-0.221,0.845-0.38c0.241-0.158,0.428-0.348,0.561-0.57
		c0.133-0.222,0.2-0.459,0.2-0.713V9.747h-2.09c-0.912,0-1.577,0.126-1.995,0.38s-0.627,0.621-0.627,1.102v0.399
		c0,0.507,0.18,0.89,0.542,1.15C516.487,13.038,516.984,13.167,517.618,13.167z"/>
	<path class="st0" d="M552.597,14.212V4.408h1.52v1.596h0.076c0.101-0.24,0.228-0.472,0.38-0.693
		c0.152-0.221,0.339-0.415,0.561-0.58c0.222-0.165,0.484-0.297,0.789-0.399c0.304-0.101,0.659-0.152,1.064-0.152
		c1.026,0,1.849,0.326,2.47,0.979c0.62,0.652,0.931,1.574,0.931,2.765v6.289h-1.52V8.189c0-0.899-0.196-1.567-0.589-2.004
		s-0.969-0.656-1.729-0.656c-0.304,0-0.602,0.038-0.893,0.114s-0.551,0.19-0.779,0.342c-0.228,0.152-0.412,0.349-0.551,0.589
		c-0.139,0.241-0.209,0.52-0.209,0.836v6.802H552.597z"/>
	<path class="st0" d="M575.435,14.44c-0.684,0-1.302-0.121-1.853-0.361c-0.551-0.241-1.02-0.586-1.406-1.036
		c-0.386-0.449-0.681-0.988-0.883-1.615c-0.203-0.627-0.304-1.333-0.304-2.119c0-0.772,0.102-1.476,0.304-2.109
		c0.202-0.633,0.497-1.175,0.883-1.625s0.855-0.795,1.406-1.036c0.551-0.241,1.168-0.361,1.853-0.361
		c0.684,0,1.301,0.12,1.853,0.361c0.551,0.241,1.019,0.586,1.406,1.036c0.386,0.45,0.681,0.991,0.883,1.625s0.304,1.336,0.304,2.109
		c0,0.786-0.102,1.491-0.304,2.119c-0.203,0.627-0.497,1.166-0.883,1.615c-0.387,0.45-0.855,0.795-1.406,1.036
		C576.736,14.319,576.118,14.44,575.435,14.44z M575.435,13.129c0.848,0,1.532-0.253,2.052-0.76
		c0.519-0.506,0.779-1.292,0.779-2.356V8.607c0-1.064-0.26-1.849-0.779-2.356c-0.52-0.506-1.204-0.76-2.052-0.76
		c-0.849,0-1.533,0.253-2.052,0.76c-0.52,0.507-0.779,1.292-0.779,2.356v1.406c0,1.064,0.259,1.85,0.779,2.356
		C573.901,12.876,574.585,13.129,575.435,13.129z"/>
	<path class="st0" d="M594.909,14.212c-0.748,0-1.295-0.208-1.643-0.625c-0.349-0.417-0.523-0.954-0.523-1.611V5.719h-3.268V4.408
		h2.432c0.33,0,0.561-0.067,0.694-0.2c0.133-0.133,0.199-0.364,0.199-0.693V0.95h1.463v3.458h4.465v1.311h-4.465v7.182h4.465v1.311
		H594.909z"/>
	<path class="st0" d="M609.749,12.901h3.534V5.719h-3.534V4.408h5.054v8.493h3.306v1.311h-8.36V12.901z M614.042,2.242
		c-0.444,0-0.754-0.092-0.931-0.276c-0.177-0.183-0.266-0.415-0.266-0.693V0.969c0-0.279,0.089-0.51,0.266-0.694
		C613.289,0.092,613.599,0,614.042,0c0.443,0,0.753,0.092,0.931,0.275c0.177,0.184,0.266,0.415,0.266,0.694v0.304
		c0,0.279-0.089,0.51-0.266,0.693C614.796,2.15,614.486,2.242,614.042,2.242z"/>
	<path class="st0" d="M628.349,14.212v-1.481l6.327-7.012h-6.118V4.408h7.771v1.481l-6.327,7.012h6.517v1.311H628.349z"/>
	<path class="st0" d="M647.748,12.901h3.534V5.719h-3.534V4.408h5.054v8.493h3.306v1.311h-8.36V12.901z M652.042,2.242
		c-0.444,0-0.754-0.092-0.931-0.276c-0.177-0.183-0.266-0.415-0.266-0.693V0.969c0-0.279,0.089-0.51,0.266-0.694
		C651.288,0.092,651.598,0,652.042,0c0.443,0,0.753,0.092,0.931,0.275c0.177,0.184,0.266,0.415,0.266,0.694v0.304
		c0,0.279-0.089,0.51-0.266,0.693C652.795,2.15,652.485,2.242,652.042,2.242z"/>
	<path class="st0" d="M674.138,14.212c-0.595,0-1.02-0.152-1.273-0.456c-0.253-0.304-0.412-0.684-0.475-1.14h-0.095
		c-0.215,0.57-0.561,1.016-1.036,1.339s-1.111,0.484-1.909,0.484c-1.026,0-1.843-0.266-2.451-0.798s-0.912-1.26-0.912-2.185
		c0-0.912,0.333-1.615,0.998-2.109s1.739-0.741,3.221-0.741h2.09V7.644c0-0.718-0.203-1.256-0.608-1.615
		c-0.406-0.359-0.982-0.538-1.729-0.538c-0.659,0-1.197,0.13-1.615,0.389c-0.418,0.26-0.753,0.611-1.007,1.055l-1.026-0.76
		c0.126-0.253,0.297-0.501,0.513-0.744c0.215-0.243,0.481-0.457,0.798-0.644c0.316-0.187,0.677-0.334,1.083-0.444
		c0.405-0.109,0.855-0.164,1.349-0.164c1.153,0,2.068,0.292,2.746,0.876s1.017,1.396,1.017,2.437v5.408h1.368v1.311H674.138z
		 M669.616,13.167c0.393,0,0.75-0.047,1.074-0.143c0.323-0.095,0.604-0.221,0.845-0.38c0.241-0.158,0.428-0.348,0.561-0.57
		c0.133-0.222,0.2-0.459,0.2-0.713V9.747h-2.09c-0.912,0-1.577,0.126-1.995,0.38s-0.627,0.621-0.627,1.102v0.399
		c0,0.507,0.18,0.89,0.542,1.15C668.486,13.038,668.983,13.167,669.616,13.167z"/>
	<path class="st0" d="M708.604,14.44c-0.709,0-1.346-0.121-1.91-0.361c-0.563-0.241-1.045-0.586-1.444-1.036
		c-0.399-0.449-0.707-0.988-0.921-1.615c-0.216-0.627-0.323-1.327-0.323-2.1c0-0.785,0.111-1.495,0.333-2.128
		s0.529-1.175,0.921-1.625s0.865-0.795,1.416-1.036c0.551-0.241,1.162-0.361,1.833-0.361c0.659,0,1.257,0.12,1.795,0.361
		c0.539,0.241,0.998,0.573,1.378,0.998c0.38,0.424,0.671,0.928,0.874,1.511c0.202,0.583,0.304,1.222,0.304,1.919V9.69h-7.258v0.456
		c0,0.431,0.069,0.83,0.209,1.197c0.139,0.367,0.338,0.684,0.598,0.95s0.577,0.472,0.95,0.618s0.789,0.218,1.245,0.218
		c0.658,0,1.229-0.152,1.71-0.456c0.481-0.304,0.849-0.722,1.102-1.254l1.121,0.76c-0.292,0.659-0.776,1.2-1.454,1.625
		C710.406,14.228,709.58,14.44,708.604,14.44z M708.509,5.434c-0.418,0-0.804,0.076-1.159,0.228
		c-0.355,0.152-0.662,0.361-0.922,0.627s-0.462,0.58-0.608,0.94s-0.218,0.757-0.218,1.188V8.55h5.624V8.341
		c0-0.431-0.067-0.823-0.2-1.178c-0.133-0.354-0.317-0.662-0.551-0.921c-0.235-0.26-0.52-0.459-0.855-0.599
		C709.285,5.504,708.915,5.434,708.509,5.434z"/>
	<path class="st0" d="M742.747,12.901h3.534V5.719h-3.534V4.408h5.054v8.493h3.306v1.311h-8.36V12.901z M747.041,2.242
		c-0.444,0-0.754-0.092-0.931-0.276c-0.177-0.183-0.266-0.415-0.266-0.693V0.969c0-0.279,0.089-0.51,0.266-0.694
		C746.287,0.092,746.597,0,747.041,0c0.443,0,0.753,0.092,0.931,0.275c0.177,0.184,0.266,0.415,0.266,0.694v0.304
		c0,0.279-0.089,0.51-0.266,0.693C747.794,2.15,747.484,2.242,747.041,2.242z"/>
	<path class="st0" d="M761.595,14.212V4.408h1.52v1.596h0.076c0.101-0.24,0.228-0.472,0.38-0.693
		c0.152-0.221,0.339-0.415,0.561-0.58c0.222-0.165,0.484-0.297,0.789-0.399c0.304-0.101,0.659-0.152,1.064-0.152
		c1.026,0,1.849,0.326,2.47,0.979c0.62,0.652,0.931,1.574,0.931,2.765v6.289h-1.52V8.189c0-0.899-0.196-1.567-0.589-2.004
		s-0.969-0.656-1.729-0.656c-0.304,0-0.602,0.038-0.893,0.114s-0.551,0.19-0.779,0.342c-0.228,0.152-0.412,0.349-0.551,0.589
		c-0.139,0.241-0.209,0.52-0.209,0.836v6.802H761.595z"/>
	<path class="st0" d="M780.31,12.901h3.306V5.719h-3.496V4.408h3.496V2.394c0-0.658,0.174-1.197,0.522-1.615
		c0.349-0.418,0.896-0.627,1.644-0.627h3.287v1.311h-3.933v2.945h3.933v1.311h-3.933v7.182h3.496v1.311h-8.322V12.901z"/>
	<path class="st0" d="M803.433,14.44c-0.684,0-1.302-0.121-1.853-0.361c-0.551-0.241-1.02-0.586-1.406-1.036
		c-0.386-0.449-0.681-0.988-0.883-1.615c-0.203-0.627-0.304-1.333-0.304-2.119c0-0.772,0.102-1.476,0.304-2.109
		c0.202-0.633,0.497-1.175,0.883-1.625s0.855-0.795,1.406-1.036c0.551-0.241,1.168-0.361,1.853-0.361
		c0.684,0,1.301,0.12,1.853,0.361c0.551,0.241,1.019,0.586,1.406,1.036c0.386,0.45,0.681,0.991,0.883,1.625s0.304,1.336,0.304,2.109
		c0,0.786-0.102,1.491-0.304,2.119c-0.203,0.627-0.497,1.166-0.883,1.615c-0.387,0.45-0.855,0.795-1.406,1.036
		C804.734,14.319,804.116,14.44,803.433,14.44z M803.433,13.129c0.848,0,1.532-0.253,2.052-0.76
		c0.519-0.506,0.779-1.292,0.779-2.356V8.607c0-1.064-0.26-1.849-0.779-2.356c-0.52-0.506-1.204-0.76-2.052-0.76
		c-0.849,0-1.533,0.253-2.052,0.76c-0.52,0.507-0.779,1.292-0.779,2.356v1.406c0,1.064,0.259,1.85,0.779,2.356
		C801.899,12.876,802.583,13.129,803.433,13.129z"/>
	<path class="st0" d="M818.195,12.901h2.869V5.719h-2.869V4.408h4.389v2.47h0.095c0.203-0.772,0.586-1.377,1.15-1.814
		c0.563-0.437,1.282-0.655,2.156-0.655h1.368v1.52h-1.843c-0.874,0-1.58,0.252-2.118,0.758c-0.539,0.505-0.808,1.168-0.808,1.99
		v4.225h3.8v1.311h-8.189V12.901z"/>
	<path class="st0" d="M836.758,14.212V4.408h1.406v1.14h0.076c0.152-0.38,0.367-0.703,0.646-0.969s0.69-0.399,1.235-0.399
		c0.57,0,0.994,0.143,1.273,0.427c0.278,0.285,0.449,0.656,0.513,1.112h0.057c0.177-0.443,0.431-0.811,0.76-1.102
		c0.329-0.292,0.785-0.437,1.368-0.437c0.798,0,1.333,0.279,1.605,0.836c0.272,0.558,0.409,1.355,0.409,2.394v6.802H844.7V7.657
		c0-0.836-0.085-1.415-0.256-1.738c-0.171-0.323-0.484-0.484-0.94-0.484c-0.406,0-0.735,0.13-0.988,0.39
		c-0.254,0.26-0.38,0.655-0.38,1.188v7.201h-1.406V7.657c0-0.836-0.085-1.415-0.256-1.738c-0.171-0.323-0.479-0.484-0.922-0.484
		c-0.405,0-0.738,0.13-0.998,0.39s-0.389,0.655-0.389,1.188v7.201H836.758z"/>
	<path class="st0" d="M864.137,14.212c-0.595,0-1.02-0.152-1.273-0.456c-0.253-0.304-0.412-0.684-0.475-1.14h-0.095
		c-0.215,0.57-0.561,1.016-1.036,1.339s-1.111,0.484-1.909,0.484c-1.026,0-1.843-0.266-2.451-0.798s-0.912-1.26-0.912-2.185
		c0-0.912,0.333-1.615,0.998-2.109s1.739-0.741,3.221-0.741h2.09V7.644c0-0.718-0.203-1.256-0.608-1.615
		c-0.406-0.359-0.982-0.538-1.729-0.538c-0.659,0-1.197,0.13-1.615,0.389c-0.418,0.26-0.753,0.611-1.007,1.055l-1.026-0.76
		c0.126-0.253,0.297-0.501,0.513-0.744c0.215-0.243,0.481-0.457,0.798-0.644c0.316-0.187,0.677-0.334,1.083-0.444
		c0.405-0.109,0.855-0.164,1.349-0.164c1.153,0,2.068,0.292,2.746,0.876s1.017,1.396,1.017,2.437v5.408h1.368v1.311H864.137z
		 M859.615,13.167c0.393,0,0.75-0.047,1.074-0.143c0.323-0.095,0.604-0.221,0.845-0.38c0.241-0.158,0.428-0.348,0.561-0.57
		c0.133-0.222,0.2-0.459,0.2-0.713V9.747h-2.09c-0.912,0-1.577,0.126-1.995,0.38s-0.627,0.621-0.627,1.102v0.399
		c0,0.507,0.18,0.89,0.542,1.15C858.484,13.038,858.981,13.167,859.615,13.167z"/>
	<path class="st0" d="M875.347,14.212v-1.481l6.327-7.012h-6.118V4.408h7.771v1.481L877,12.901h6.517v1.311H875.347z"/>
	<path class="st0" d="M894.746,12.901h3.534V5.719h-3.534V4.408h5.054v8.493h3.306v1.311h-8.36V12.901z M899.04,2.242
		c-0.444,0-0.754-0.092-0.931-0.276c-0.177-0.183-0.266-0.415-0.266-0.693V0.969c0-0.279,0.089-0.51,0.266-0.694
		C898.286,0.092,898.596,0,899.04,0c0.443,0,0.753,0.092,0.931,0.275c0.177,0.184,0.266,0.415,0.266,0.694v0.304
		c0,0.279-0.089,0.51-0.266,0.693C899.793,2.15,899.483,2.242,899.04,2.242z"/>
	<path class="st0" d="M917.432,14.44c-0.684,0-1.302-0.121-1.853-0.361c-0.551-0.241-1.02-0.586-1.406-1.036
		c-0.386-0.449-0.681-0.988-0.883-1.615c-0.203-0.627-0.304-1.333-0.304-2.119c0-0.772,0.102-1.476,0.304-2.109
		c0.202-0.633,0.497-1.175,0.883-1.625s0.855-0.795,1.406-1.036c0.551-0.241,1.168-0.361,1.853-0.361
		c0.684,0,1.301,0.12,1.853,0.361c0.551,0.241,1.019,0.586,1.406,1.036c0.386,0.45,0.681,0.991,0.883,1.625s0.304,1.336,0.304,2.109
		c0,0.786-0.102,1.491-0.304,2.119c-0.203,0.627-0.497,1.166-0.883,1.615c-0.387,0.45-0.855,0.795-1.406,1.036
		C918.733,14.319,918.115,14.44,917.432,14.44z M917.432,13.129c0.848,0,1.532-0.253,2.052-0.76
		c0.519-0.506,0.779-1.292,0.779-2.356V8.607c0-1.064-0.26-1.849-0.779-2.356c-0.52-0.506-1.204-0.76-2.052-0.76
		c-0.849,0-1.533,0.253-2.052,0.76c-0.52,0.507-0.779,1.292-0.779,2.356v1.406c0,1.064,0.259,1.85,0.779,2.356
		C915.898,12.876,916.583,13.129,917.432,13.129z"/>
	<path class="st0" d="M932.593,14.212V4.408h1.52v1.596h0.076c0.102-0.24,0.228-0.472,0.38-0.693
		c0.152-0.221,0.339-0.415,0.561-0.58c0.222-0.165,0.484-0.297,0.788-0.399c0.305-0.101,0.659-0.152,1.064-0.152
		c1.026,0,1.85,0.326,2.47,0.979c0.621,0.652,0.932,1.574,0.932,2.765v6.289h-1.521V8.189c0-0.899-0.196-1.567-0.589-2.004
		s-0.969-0.656-1.729-0.656c-0.305,0-0.603,0.038-0.894,0.114s-0.551,0.19-0.779,0.342c-0.228,0.152-0.411,0.349-0.551,0.589
		s-0.209,0.52-0.209,0.836v6.802H932.593z"/>
	<path class="st0" d="M955.603,14.44c-0.71,0-1.346-0.121-1.909-0.361c-0.564-0.241-1.046-0.586-1.444-1.036
		c-0.399-0.449-0.706-0.988-0.922-1.615c-0.215-0.627-0.322-1.327-0.322-2.1c0-0.785,0.11-1.495,0.332-2.128
		s0.528-1.175,0.922-1.625c0.393-0.45,0.864-0.795,1.415-1.036s1.162-0.361,1.834-0.361c0.658,0,1.257,0.12,1.795,0.361
		s0.998,0.573,1.378,0.998s0.671,0.928,0.874,1.511c0.202,0.583,0.304,1.222,0.304,1.919V9.69h-7.258v0.456
		c0,0.431,0.069,0.83,0.209,1.197c0.139,0.367,0.339,0.684,0.599,0.95c0.259,0.266,0.576,0.472,0.95,0.618
		c0.373,0.146,0.788,0.218,1.244,0.218c0.658,0,1.229-0.152,1.71-0.456c0.481-0.304,0.849-0.722,1.102-1.254l1.121,0.76
		c-0.291,0.659-0.775,1.2-1.453,1.625S956.578,14.44,955.603,14.44z M955.508,5.434c-0.418,0-0.805,0.076-1.159,0.228
		s-0.662,0.361-0.922,0.627s-0.462,0.58-0.607,0.94c-0.146,0.361-0.219,0.757-0.219,1.188V8.55h5.624V8.341
		c0-0.431-0.066-0.823-0.199-1.178c-0.134-0.354-0.317-0.662-0.552-0.921s-0.52-0.459-0.854-0.599
		C956.283,5.504,955.913,5.434,955.508,5.434z"/>
</g>
<g>
	<rect x="0.001" y="7.173" transform="matrix(1 -0.0034 0.0034 1 -0.0252 0.2987)" class="st0" width="173.501" height="0.567"/>
</g>
<g>
	<rect x="998.507" y="7.93" class="st0" width="157.5" height="0.567"/>
</g>
</svg>