<!-- Generator: Adobe Illustrator 21.1.0, SVG Export Plug-In  -->
<svg version="1.1"
	 xmlns="http://www.w3.org/2000/svg" xmlns:xlink="http://www.w3.org/1999/xlink" xmlns:a="http://ns.adobe.com/AdobeSVGViewerExtensions/3.0/"
	 x="0px" y="0px" width="1156px" height="18.012px" viewBox="0 0 1156 18.012" style="enable-background:new 0 0 1156 18.012;"
	 xml:space="preserve">
<style type="text/css">
	.st0{fill:#FFFFFF;}
</style>
<defs>
</defs>
<g>
	<path class="st0" d="M444.443,12.901h3.533V5.719h-3.533V4.408h5.054v8.493h3.306v1.311h-8.359V12.901z M448.737,2.242
		c-0.444,0-0.754-0.092-0.931-0.276c-0.178-0.183-0.267-0.415-0.267-0.693V0.969c0-0.278,0.089-0.51,0.267-0.693
		C447.983,0.092,448.293,0,448.737,0c0.443,0,0.753,0.092,0.931,0.276c0.178,0.184,0.266,0.415,0.266,0.693v0.304
		c0,0.279-0.088,0.51-0.266,0.693C449.49,2.15,449.181,2.242,448.737,2.242z"/>
	<path class="st0" d="M482.234,4.408h1.52v1.596h0.076c0.633-1.216,1.64-1.824,3.021-1.824c1.203,0,2.144,0.45,2.821,1.349
		c0.678,0.9,1.017,2.16,1.017,3.781c0,1.621-0.339,2.882-1.017,3.781c-0.678,0.9-1.618,1.349-2.821,1.349
		c-1.381,0-2.388-0.608-3.021-1.824h-0.076v5.396h-1.52V4.408z M486.262,13.091c0.887,0,1.574-0.269,2.062-0.807
		c0.487-0.538,0.731-1.251,0.731-2.138V8.474c0-0.886-0.244-1.599-0.731-2.137c-0.487-0.538-1.175-0.807-2.062-0.807
		c-0.342,0-0.665,0.045-0.969,0.133c-0.305,0.089-0.57,0.219-0.799,0.39c-0.228,0.171-0.408,0.38-0.541,0.627
		c-0.133,0.247-0.199,0.535-0.199,0.865v3.534c0,0.33,0.066,0.618,0.199,0.865s0.313,0.456,0.541,0.627
		c0.229,0.171,0.494,0.301,0.799,0.39C485.597,13.047,485.92,13.091,486.262,13.091z"/>
	<path class="st0" d="M507.447,12.616h-0.076c-0.102,0.241-0.229,0.472-0.381,0.693c-0.151,0.222-0.338,0.415-0.561,0.579
		c-0.221,0.165-0.484,0.298-0.788,0.399c-0.304,0.101-0.659,0.152-1.063,0.152c-1.026,0-1.85-0.326-2.471-0.979
		c-0.621-0.652-0.931-1.574-0.931-2.765V4.408h1.521v6.023c0,0.9,0.195,1.568,0.588,2.005s0.97,0.656,1.729,0.656
		c0.304,0,0.602-0.038,0.894-0.114c0.291-0.076,0.551-0.19,0.778-0.342s0.411-0.345,0.552-0.579
		c0.139-0.234,0.209-0.516,0.209-0.845V4.408h1.52v9.804h-1.52V12.616z"/>
	<path class="st0" d="M520.291,14.212V4.408h1.52v1.596h0.076c0.102-0.24,0.229-0.472,0.38-0.693
		c0.152-0.221,0.339-0.415,0.561-0.579c0.222-0.165,0.484-0.297,0.788-0.399c0.305-0.101,0.659-0.152,1.064-0.152
		c1.025,0,1.85,0.326,2.471,0.979c0.619,0.652,0.93,1.574,0.93,2.765v6.289h-1.52V8.189c0-0.899-0.196-1.568-0.589-2.005
		s-0.969-0.656-1.729-0.656c-0.304,0-0.602,0.038-0.893,0.114c-0.291,0.076-0.551,0.19-0.779,0.342
		c-0.228,0.152-0.411,0.349-0.551,0.589c-0.139,0.241-0.209,0.52-0.209,0.836v6.802H520.291z"/>
	<path class="st0" d="M543.604,14.212c-0.748,0-1.295-0.208-1.644-0.625s-0.522-0.954-0.522-1.611V5.719h-3.268V4.408h2.432
		c0.329,0,0.561-0.067,0.693-0.2c0.133-0.133,0.199-0.364,0.199-0.693V0.95h1.463v3.458h4.465v1.311h-4.465v7.182h4.465v1.311
		H543.604z"/>
	<path class="st0" d="M558.442,12.901h3.534V5.719h-3.534V4.408h5.054v8.493h3.307v1.311h-8.36V12.901z M562.736,2.242
		c-0.443,0-0.754-0.092-0.932-0.276c-0.177-0.183-0.266-0.415-0.266-0.693V0.969c0-0.278,0.089-0.51,0.266-0.693
		C561.982,0.092,562.293,0,562.736,0s0.754,0.092,0.931,0.276c0.177,0.184,0.267,0.415,0.267,0.693v0.304
		c0,0.279-0.09,0.51-0.267,0.693C563.49,2.15,563.18,2.242,562.736,2.242z"/>
	<path class="st0" d="M600.47,14.44c-0.71,0-1.339-0.124-1.891-0.37c-0.551-0.247-1.017-0.592-1.396-1.036
		c-0.38-0.443-0.668-0.981-0.864-1.615c-0.197-0.633-0.295-1.336-0.295-2.109c0-0.772,0.102-1.475,0.305-2.109
		c0.202-0.633,0.494-1.175,0.873-1.625c0.381-0.449,0.843-0.795,1.388-1.036c0.544-0.24,1.165-0.361,1.862-0.361
		c0.949,0,1.723,0.209,2.317,0.627s1.032,0.963,1.312,1.634l-1.217,0.646c-0.178-0.506-0.472-0.899-0.883-1.178
		c-0.412-0.278-0.922-0.418-1.529-0.418c-0.443,0-0.84,0.073-1.188,0.219c-0.35,0.146-0.644,0.351-0.884,0.617
		c-0.241,0.266-0.421,0.583-0.542,0.95c-0.12,0.368-0.18,0.767-0.18,1.197v1.672c0,0.431,0.06,0.83,0.18,1.197
		c0.121,0.368,0.301,0.684,0.542,0.95c0.24,0.266,0.538,0.472,0.894,0.617c0.354,0.146,0.76,0.219,1.215,0.219
		c0.658,0,1.203-0.152,1.635-0.456c0.43-0.304,0.771-0.722,1.025-1.254l1.084,0.741c-0.292,0.659-0.745,1.203-1.359,1.634
		C602.259,14.224,601.457,14.44,600.47,14.44z"/>
	<path class="st0" d="M622.832,14.212c-0.595,0-1.02-0.152-1.272-0.456c-0.253-0.304-0.411-0.684-0.475-1.14h-0.095
		c-0.216,0.57-0.561,1.016-1.036,1.339s-1.111,0.484-1.909,0.484c-1.026,0-1.844-0.266-2.451-0.798
		c-0.607-0.532-0.912-1.26-0.912-2.185c0-0.912,0.332-1.615,0.998-2.109c0.664-0.494,1.738-0.741,3.221-0.741h2.09V7.644
		c0-0.718-0.203-1.256-0.608-1.615c-0.405-0.359-0.981-0.538-1.729-0.538c-0.658,0-1.197,0.13-1.615,0.389
		c-0.418,0.26-0.753,0.611-1.006,1.055l-1.026-0.76c0.126-0.253,0.298-0.501,0.513-0.744c0.215-0.243,0.481-0.457,0.799-0.644
		c0.316-0.187,0.677-0.334,1.082-0.444c0.406-0.109,0.855-0.164,1.35-0.164c1.152,0,2.067,0.292,2.745,0.876
		c0.678,0.584,1.017,1.396,1.017,2.437v5.408h1.368v1.311H622.832z M618.311,13.167c0.393,0,0.75-0.047,1.074-0.142
		c0.322-0.095,0.604-0.221,0.845-0.38c0.241-0.158,0.428-0.348,0.561-0.57c0.134-0.222,0.2-0.459,0.2-0.713V9.747h-2.09
		c-0.912,0-1.578,0.127-1.996,0.38c-0.418,0.254-0.627,0.621-0.627,1.102v0.399c0,0.507,0.181,0.89,0.542,1.15
		C617.18,13.037,617.678,13.167,618.311,13.167z"/>
	<path class="st0" d="M633.891,12.901h2.869V5.719h-2.869V4.408h4.389v2.47h0.095c0.202-0.772,0.586-1.378,1.149-1.815
		c0.564-0.437,1.283-0.655,2.156-0.655h1.369v1.52h-1.844c-0.874,0-1.58,0.253-2.118,0.758c-0.538,0.505-0.808,1.169-0.808,1.99
		v4.225h3.8v1.311h-8.188V12.901z"/>
	<path class="st0" d="M659.502,12.616h-0.076c-0.633,1.216-1.641,1.824-3.021,1.824c-1.204,0-2.144-0.449-2.821-1.349
		c-0.678-0.899-1.017-2.16-1.017-3.781c0-1.621,0.339-2.881,1.017-3.781c0.678-0.899,1.617-1.349,2.821-1.349
		c1.38,0,2.388,0.608,3.021,1.824h0.076V0.152h1.521v14.06h-1.521V12.616z M656.994,13.091c0.342,0,0.665-0.044,0.969-0.133
		c0.305-0.089,0.57-0.219,0.799-0.39c0.228-0.171,0.408-0.38,0.541-0.627s0.199-0.535,0.199-0.865V7.543
		c0-0.329-0.066-0.618-0.199-0.865c-0.133-0.247-0.313-0.456-0.541-0.627c-0.229-0.171-0.494-0.301-0.799-0.39
		c-0.304-0.088-0.627-0.133-0.969-0.133c-0.887,0-1.574,0.269-2.062,0.807c-0.487,0.539-0.731,1.251-0.731,2.137v1.672
		c0,0.887,0.244,1.599,0.731,2.138C655.42,12.822,656.107,13.091,656.994,13.091z"/>
	<path class="st0" d="M672.441,12.901h3.533V5.719h-3.533V4.408h5.054v8.493h3.306v1.311h-8.359V12.901z M676.735,2.242
		c-0.444,0-0.754-0.092-0.931-0.276c-0.178-0.183-0.267-0.415-0.267-0.693V0.969c0-0.278,0.089-0.51,0.267-0.693
		C675.981,0.092,676.291,0,676.735,0c0.443,0,0.753,0.092,0.931,0.276c0.178,0.184,0.266,0.415,0.266,0.693v0.304
		c0,0.279-0.088,0.51-0.266,0.693C677.488,2.15,677.179,2.242,676.735,2.242z"/>
	<path class="st0" d="M691.289,14.212V4.408h1.52v1.596h0.076c0.102-0.24,0.229-0.472,0.38-0.693
		c0.152-0.221,0.339-0.415,0.561-0.579c0.222-0.165,0.484-0.297,0.788-0.399c0.305-0.101,0.659-0.152,1.064-0.152
		c1.025,0,1.85,0.326,2.471,0.979c0.619,0.652,0.93,1.574,0.93,2.765v6.289h-1.52V8.189c0-0.899-0.196-1.568-0.589-2.005
		s-0.969-0.656-1.729-0.656c-0.304,0-0.602,0.038-0.893,0.114c-0.291,0.076-0.551,0.19-0.779,0.342
		c-0.228,0.152-0.411,0.349-0.551,0.589c-0.139,0.241-0.209,0.52-0.209,0.836v6.802H691.289z"/>
	<path class="st0" d="M714.298,14.44c-0.71,0-1.347-0.121-1.909-0.361c-0.564-0.24-1.045-0.586-1.444-1.035
		c-0.399-0.449-0.706-0.988-0.921-1.615c-0.217-0.627-0.324-1.327-0.324-2.1c0-0.785,0.111-1.494,0.333-2.128
		c0.222-0.633,0.528-1.175,0.921-1.625c0.393-0.449,0.865-0.795,1.416-1.036c0.551-0.24,1.162-0.361,1.834-0.361
		c0.658,0,1.257,0.12,1.795,0.361c0.539,0.241,0.998,0.573,1.378,0.998c0.38,0.424,0.671,0.928,0.874,1.51
		c0.202,0.583,0.304,1.223,0.304,1.919V9.69h-7.258v0.456c0,0.431,0.069,0.83,0.209,1.197c0.14,0.368,0.339,0.684,0.599,0.95
		c0.26,0.266,0.576,0.472,0.949,0.617c0.374,0.146,0.789,0.219,1.245,0.219c0.658,0,1.229-0.152,1.71-0.456
		c0.48-0.304,0.849-0.722,1.102-1.254l1.121,0.76c-0.291,0.659-0.775,1.2-1.453,1.625C716.1,14.228,715.273,14.44,714.298,14.44z
		 M714.203,5.434c-0.418,0-0.805,0.076-1.159,0.228c-0.354,0.152-0.662,0.361-0.922,0.627s-0.462,0.579-0.608,0.94
		c-0.145,0.361-0.218,0.757-0.218,1.188V8.55h5.624V8.341c0-0.431-0.066-0.823-0.199-1.178c-0.133-0.354-0.317-0.662-0.551-0.922
		c-0.235-0.26-0.52-0.459-0.855-0.599C714.979,5.504,714.607,5.434,714.203,5.434z"/>
</g>
<g>
	<polygon class="st0" points="0,7.991 0,7.424 406,6.924 406,7.491 	"/>
</g>
<g>
	<rect x="756" y="7.93" class="st0" width="400" height="0.567"/>
</g>
</svg>