<!-- Generator: Adobe Illustrator 21.1.0, SVG Export Plug-In  -->
<svg version="1.1"
	 xmlns="http://www.w3.org/2000/svg" xmlns:xlink="http://www.w3.org/1999/xlink" xmlns:a="http://ns.adobe.com/AdobeSVGViewerExtensions/3.0/"
	 x="0px" y="0px" width="391.449px" height="274.144px" viewBox="0 0 391.449 274.144"
	 style="enable-background:new 0 0 391.449 274.144;" xml:space="preserve">
<style type="text/css">
	.st0{fill:#FFFFFF;}
</style>
<defs>
</defs>
<path class="st0" d="M113.524,25.941c0-0.53-0.431-0.961-0.961-0.961h-0.066c-0.519,0-0.925,0.422-0.925,0.961
	c0,0.521,0.454,0.961,0.992,0.961C113.093,26.902,113.524,26.471,113.524,25.941z"/>
<path class="st0" d="M124.911,26.902c0.53,0,0.961-0.431,0.961-0.961c0-0.53-0.431-0.961-0.961-0.961h-0.066
	c-0.519,0-0.925,0.422-0.925,0.961C123.919,26.462,124.374,26.902,124.911,26.902z"/>
<path class="st0" d="M19.766,55.85c-0.53,0-0.961,0.431-0.961,0.961v148.176c0,0.53,0.431,0.961,0.961,0.961h74.088
	c0.53,0,0.961-0.431,0.961-0.961V56.811c0-0.53-0.431-0.961-0.961-0.961H19.766z M20.727,119.35l1.753-0.312
	c11.193-1.993,17.902-3.562,21.115-4.937c1.827-0.782,1.827-1.02,1.827-1.724v-4.723l3.372,2.439
	c2.934,2.123,5.703,3.245,8.008,3.245c2.31,0,5.083-1.124,8.021-3.25l3.373-2.441v4.729c0,0.705,0,0.942,1.827,1.724
	c3.213,1.375,9.922,2.944,21.115,4.937l1.753,0.312v10.587H20.727V119.35z M39.249,89.194c0-11.052,7.383-19.074,17.555-19.074
	c10.179,0,17.567,8.022,17.567,19.074c0,11.458-10.959,22.222-17.567,22.222C50.357,111.416,39.249,100.435,39.249,89.194z
	 M92.893,204.025H20.727v-72.166h72.166V204.025z M92.893,117.415l-2.512-0.464c-6.556-1.211-15.428-3.062-18.854-4.292
	l-1.407-0.506v-7.142l0.439-0.572c3.698-4.824,5.735-10.238,5.735-15.245c0-11.969-8.378-20.996-19.489-20.996
	c-11.104,0-19.477,9.026-19.477,20.996c0,5.002,2.037,10.419,5.736,15.252l0.438,0.572v7.138l-1.41,0.504
	c-3.462,1.237-12.319,3.085-18.851,4.292l-2.512,0.464V57.771h72.165V117.415z"/>
<path class="st0" d="M390.205,274.144c0.687,0,1.244-0.558,1.244-1.244V7.418c0-4.09-3.327-7.418-7.418-7.418H7.418
	C3.328,0,0,3.328,0,7.418v265.481c0,0.687,0.558,1.244,1.245,1.244H390.205z M38.475,2.489h345.557c2.672,0,4.93,2.258,4.93,4.93
	v4.93H2.488v-4.93c0-2.718,2.212-4.93,4.93-4.93h6.295 M38.408,6.174c-0.678,0-1.208,0.547-1.208,1.245
	c0,0.687,0.572,1.245,1.275,1.245c0.687,0,1.245-0.558,1.245-1.245c0-0.686-0.559-1.245-1.245-1.245 M26.127,2.489h12.281
	 M26.061,6.174c-0.678,0-1.208,0.547-1.208,1.245c0,0.687,0.572,1.245,1.275,1.245c0.686,0,1.245-0.558,1.245-1.245
	c0-0.686-0.559-1.245-1.245-1.245 M13.779,2.489h12.281 M13.713,6.174c-0.678,0-1.209,0.547-1.209,1.245
	c0,0.687,0.572,1.245,1.275,1.245c0.686,0,1.245-0.558,1.245-1.245c0-0.686-0.559-1.245-1.245-1.245 M2.488,14.837h386.473v22.207
	H2.488V14.837z M2.488,39.533h386.473v232.123H2.488V39.533z"/>
<path class="st0" d="M74.858,148.459H37.989c-0.791,0-1.435,0.431-1.435,0.961s0.644,0.961,1.435,0.961h36.869
	c0.792,0,1.435-0.431,1.435-0.961S75.649,148.459,74.858,148.459z"/>
<path class="st0" d="M74.858,166.981H37.989c-0.791,0-1.435,0.431-1.435,0.961c0,0.529,0.644,0.96,1.435,0.96h36.869
	c0.792,0,1.435-0.431,1.435-0.96C76.293,167.412,75.649,166.981,74.858,166.981z"/>
<path class="st0" d="M74.858,185.503H37.989c-0.791,0-1.435,0.431-1.435,0.961c0,0.529,0.644,0.961,1.435,0.961h36.869
	c0.792,0,1.435-0.431,1.435-0.961S75.649,185.503,74.858,185.503z"/>
<path class="st0" d="M19.766,24.979c-0.53,0-0.961,0.431-0.961,0.961c0,0.53,0.431,0.961,0.961,0.961h74.088
	c0.53,0,0.961-0.431,0.961-0.961c0-0.53-0.431-0.961-0.961-0.961H19.766z"/>
<path class="st0" d="M112.376,107.164h259.307c0.53,0,0.961-0.431,0.961-0.961V56.811c0-0.348-0.176-0.576-0.28-0.68
	c-0.104-0.105-0.333-0.281-0.68-0.281H112.376c-0.53,0-0.961,0.431-0.961,0.961v49.392
	C111.415,106.732,111.846,107.164,112.376,107.164z M113.337,57.771h257.386v47.471H113.337V57.771z"/>
<path class="st0" d="M346.987,26.902c0.53,0,0.961-0.431,0.961-0.961c0-0.53-0.431-0.961-0.961-0.961H137.072
	c-0.53,0-0.961,0.431-0.961,0.961c0,0.53,0.431,0.961,0.961,0.961H346.987z"/>
<g>
	<path class="st0" d="M151.583,158.223c-3.53-0.756-7.195-1.72-9.05-2.38l-1.414-0.503v-6.354l0.403-0.558
		c1.731-2.396,2.685-5.065,2.685-7.516c0-3.068-1.05-5.872-2.957-7.894c-1.874-1.987-4.457-3.082-7.271-3.082
		c-5.824,0-10.216,4.718-10.216,10.976c0,3.139,1.46,5.823,2.686,7.523l0.401,0.557v6.347l-1.414,0.503
		c-1.865,0.663-5.562,1.635-9.053,2.382c-0.078,0.035-0.157,0.067-0.238,0.095l-2.772,0.939l2.725,0.854
		c0.185,0.058,0.25,0.06,0.256,0.06c0.079,0,0.16-0.012,0.241-0.027c12.175-2.565,12.175-3.762,12.175-4.553v-3.948l2.951,1.242
		c0.928,0.391,1.666,0.58,2.256,0.58c0.584,0,1.327-0.192,2.272-0.588l2.947-1.233v3.947c0,0.791,0,1.986,12.21,4.56
		c0.047,0.009,0.128,0.021,0.207,0.021c0.007,0,0.071-0.002,0.256-0.06l2.741-0.86l-2.781-0.932
		C151.746,158.293,151.664,158.26,151.583,158.223z M133.979,151.547c-2.804-0.002-8.294-4.817-8.294-10.634
		c0-5.246,3.488-9.054,8.294-9.054c4.812,0,8.306,3.808,8.306,9.054C142.285,146.732,136.786,151.547,133.979,151.547z"/>
	<path class="st0" d="M155.594,168.902c0.53,0,0.961-0.431,0.961-0.96v-43.218c0-0.53-0.431-0.961-0.961-0.961h-43.217
		c-0.53,0-0.961,0.431-0.961,0.961v43.218c0,0.529,0.431,0.96,0.961,0.96H155.594z M113.338,125.686h41.295l0,41.296h-41.296
		L113.338,125.686z"/>
</g>
<path class="st0" d="M371.684,131.86c0.53,0,0.961-0.431,0.961-0.961c0-0.53-0.431-0.961-0.961-0.961H174.116
	c-0.53,0-0.961,0.431-0.961,0.961c0,0.53,0.431,0.961,0.961,0.961H371.684z"/>
<path class="st0" d="M371.684,144.207c0.53,0,0.961-0.431,0.961-0.961s-0.431-0.961-0.961-0.961H174.116
	c-0.53,0-0.961,0.431-0.961,0.961s0.431,0.961,0.961,0.961H371.684z"/>
<path class="st0" d="M272.899,156.555c0.53,0,0.962-0.431,0.962-0.961s-0.432-0.961-0.962-0.961h-98.783
	c-0.53,0-0.961,0.431-0.961,0.961s0.431,0.961,0.961,0.961H272.899z"/>
<g>
	<path class="st0" d="M151.583,219.962c-3.53-0.756-7.195-1.72-9.05-2.38l-1.414-0.503v-6.354l0.403-0.558
		c1.731-2.396,2.685-5.065,2.685-7.516c0-3.068-1.05-5.872-2.957-7.894c-1.874-1.987-4.457-3.082-7.271-3.082
		c-5.824,0-10.216,4.719-10.216,10.976c0,3.139,1.46,5.823,2.686,7.523l0.401,0.557v6.347l-1.414,0.503
		c-1.865,0.663-5.562,1.635-9.053,2.382c-0.078,0.035-0.157,0.067-0.238,0.095l-2.788,0.944l2.734,0.849
		c0.187,0.058,0.251,0.061,0.263,0.061c0.076,0,0.154-0.011,0.232-0.025c12.185-2.566,12.185-3.762,12.185-4.553v-3.948l2.951,1.242
		c0.93,0.391,1.667,0.581,2.256,0.581c0.585,0,1.327-0.192,2.269-0.589l2.95-1.24v3.955c0,0.79,0,1.985,12.21,4.558
		c0.053,0.01,0.131,0.021,0.207,0.021c0.007,0,0.072-0.002,0.262-0.061l2.752-0.854l-2.798-0.938
		C151.746,220.032,151.664,219.999,151.583,219.962z M133.979,213.286c-2.803,0-8.294-4.814-8.294-10.634
		c0-5.246,3.488-9.054,8.294-9.054c4.812,0,8.306,3.808,8.306,9.054C142.285,208.472,136.786,213.286,133.979,213.286z"/>
	<path class="st0" d="M155.594,230.642c0.53,0,0.961-0.431,0.961-0.961v-43.217c0-0.53-0.431-0.961-0.961-0.961h-43.217
		c-0.53,0-0.961,0.431-0.961,0.961v43.217c0,0.53,0.431,0.961,0.961,0.961H155.594z M113.338,187.425h41.295l0,41.297h-41.296
		L113.338,187.425z"/>
</g>
<path class="st0" d="M371.684,193.599c0.53,0,0.961-0.431,0.961-0.961s-0.431-0.961-0.961-0.961H174.116
	c-0.53,0-0.961,0.431-0.961,0.961s0.431,0.961,0.961,0.961H371.684z"/>
<path class="st0" d="M272.899,205.947c0.53,0,0.962-0.431,0.962-0.961s-0.432-0.961-0.962-0.961h-98.783
	c-0.53,0-0.961,0.431-0.961,0.961s0.431,0.961,0.961,0.961H272.899z"/>
<path class="st0" d="M353.16,76.293c0.53,0,0.962-0.431,0.962-0.961c0-0.53-0.432-0.961-0.962-0.961H130.897
	c-0.53,0-0.961,0.431-0.961,0.961c0,0.53,0.432,0.961,0.961,0.961H353.16z"/>
<path class="st0" d="M254.377,88.642c0.53,0,0.961-0.431,0.961-0.961c0-0.53-0.431-0.961-0.961-0.961H130.897
	c-0.53,0-0.961,0.431-0.961,0.961c0,0.53,0.432,0.961,0.961,0.961H254.377z"/>
<path class="st0" d="M198.812,261.513c0.53,0,0.961-0.431,0.961-0.961v-24.696c0-0.53-0.431-0.961-0.961-0.961h-24.695
	c-0.53,0-0.961,0.431-0.961,0.961v24.696c0,0.53,0.431,0.961,0.961,0.961H198.812z M175.077,236.817h22.774v22.773h-22.774V236.817z
	"/>
<path class="st0" d="M372.363,241.35c-0.104-0.104-0.332-0.28-0.68-0.28H217.333c-0.53,0-0.961,0.431-0.961,0.961
	c0,0.529,0.431,0.96,0.961,0.96h154.35c0.53,0,0.961-0.431,0.961-0.96C372.644,241.683,372.468,241.455,372.363,241.35z"/>
<path class="st0" d="M217.333,253.417c-0.53,0-0.961,0.431-0.961,0.96c0,0.53,0.431,0.962,0.961,0.962h80.263
	c0.53,0,0.961-0.432,0.961-0.962c0-0.529-0.431-0.96-0.961-0.96H217.333z"/>
<path class="st0" d="M174.303,166.981h-0.066c-0.519,0-0.925,0.422-0.925,0.961c0,0.521,0.454,0.96,0.991,0.96
	c0.53,0,0.961-0.431,0.961-0.96C175.264,167.412,174.833,166.981,174.303,166.981z"/>
<path class="st0" d="M186.982,168.902h18.003c0.53,0,0.961-0.431,0.961-0.96c0-0.53-0.431-0.961-0.961-0.961h-18.003
	c-0.53,0-0.961,0.431-0.961,0.961C186.021,168.472,186.452,168.902,186.982,168.902z"/>
<path class="st0" d="M174.303,216.373h-0.066c-0.519,0-0.925,0.423-0.925,0.962c0,0.521,0.454,0.96,0.991,0.96
	c0.53,0,0.961-0.431,0.961-0.96C175.264,216.805,174.833,216.373,174.303,216.373z"/>
<path class="st0" d="M186.982,218.295h18.003c0.53,0,0.961-0.431,0.961-0.96c0-0.53-0.431-0.962-0.961-0.962h-18.003
	c-0.53,0-0.961,0.432-0.961,0.962C186.021,217.864,186.452,218.295,186.982,218.295z"/>
</svg>