<!-- Generator: Adobe Illustrator 21.1.0, SVG Export Plug-In  -->
<svg version="1.1"
	 xmlns="http://www.w3.org/2000/svg" xmlns:xlink="http://www.w3.org/1999/xlink" xmlns:a="http://ns.adobe.com/AdobeSVGViewerExtensions/3.0/"
	 x="0px" y="0px" width="1461.005px" height="161.068px" viewBox="0 0 1461.005 161.068"
	 style="enable-background:new 0 0 1461.005 161.068;" xml:space="preserve">
<style type="text/css">
	.st0{fill:none;stroke:#FFFFFF;stroke-width:1.6677;stroke-miterlimit:10;}
	.st1{fill:none;stroke:#FFFFFF;stroke-width:0.5669;stroke-miterlimit:10;}
</style>
<defs>
</defs>
<path class="st0" d="M414.379,158.276c-0.362-5.236-0.789-10.461-1.377-15.682c-0.797-7.077-1.912-14.092-3.208-21.087
	c-1.09-5.886-2.442-11.712-4.098-17.465c-0.404-1.404-0.885-2.788-1.396-4.157c-0.476-1.274-1.492-1.977-2.747-2.424
	c-11.216-4.002-22.101-8.846-33.234-13.061c-3.193-1.209-5.994-3.167-8.895-4.916c-1.645-0.992-2.173-4.487-0.742-6.321
	c3.159-4.047,4.815-8.694,6.018-13.573c0.214-0.867,0.525-1.678,1.38-2.088c2.319-1.114,3.072-3.271,3.496-5.513
	c0.715-3.787,1.409-7.587,1.602-11.453c0.044-0.883,0.097-1.84-0.451-2.504c-1.221-1.48-0.943-3.062-0.71-4.734
	c1.36-9.761-0.039-18.757-7.587-25.886c-2.975-2.809-6.382-4.596-10.69-3.34c-0.301,0.088-0.701,0.122-0.969-0.003
	c-4.037-1.88-8.414-2.409-12.716-3.236c-1.332,0-2.664,0-3.996,0c-6.559,1.041-11.927,4.301-16.66,8.819
	c-5.529,5.279-6.944,11.896-6.439,19.18c0.124,1.793,0.217,3.588,0.338,5.381c0.092,1.365-0.021,2.642-1.051,3.71
	c-0.7,0.726-0.768,1.707-0.623,2.639c0.707,4.53,0.995,9.134,2.37,13.549c0.392,1.259,1.013,2.384,2.209,2.956
	c1.584,0.758,2.145,2.118,2.443,3.655c0.769,3.97,2.225,7.623,4.506,10.995c2.057,3.041,0.945,7.149-2.16,9.026
	c-7.615,4.605-16.024,7.474-24.118,11.022c-5.418,2.375-10.791,4.886-16.415,6.776c-1.276,0.429-2.034,1.375-2.527,2.642
	c-2.012,5.165-3.302,10.538-4.563,15.91c-1.443,6.152-2.539,12.379-3.484,18.626c-1.094,7.238-1.806,14.519-2.207,21.829
	c-0.059,1.066-0.081,2.137,0.448,3.123"/>
<path class="st0" d="M678.379,158.276c-0.362-5.236-0.789-10.461-1.377-15.682c-0.797-7.077-1.912-14.092-3.208-21.087
	c-1.09-5.886-2.442-11.712-4.098-17.465c-0.404-1.404-0.885-2.788-1.396-4.157c-0.476-1.274-1.492-1.977-2.747-2.424
	c-11.216-4.002-22.101-8.846-33.234-13.061c-3.193-1.209-5.994-3.167-8.895-4.916c-1.645-0.992-2.173-4.487-0.742-6.321
	c3.159-4.047,4.815-8.694,6.018-13.573c0.214-0.867,0.525-1.678,1.38-2.088c2.319-1.114,3.072-3.271,3.496-5.513
	c0.715-3.787,1.409-7.587,1.602-11.453c0.044-0.883,0.097-1.84-0.451-2.504c-1.221-1.48-0.943-3.062-0.71-4.734
	c1.36-9.761-0.04-18.757-7.587-25.886c-2.974-2.809-6.382-4.596-10.69-3.34c-0.301,0.088-0.701,0.122-0.969-0.003
	c-4.037-1.88-8.414-2.409-12.716-3.236c-1.332,0-2.664,0-3.996,0c-6.559,1.041-11.927,4.301-16.66,8.819
	c-5.529,5.279-6.944,11.896-6.439,19.18c0.124,1.793,0.217,3.588,0.338,5.381c0.093,1.365-0.021,2.642-1.051,3.71
	c-0.7,0.726-0.768,1.707-0.623,2.639c0.707,4.53,0.995,9.134,2.37,13.549c0.392,1.259,1.013,2.384,2.209,2.956
	c1.584,0.758,2.145,2.118,2.443,3.655c0.769,3.97,2.225,7.623,4.506,10.995c2.057,3.041,0.945,7.149-2.16,9.026
	c-7.615,4.605-16.024,7.474-24.118,11.022c-5.418,2.375-10.791,4.886-16.415,6.776c-1.276,0.429-2.034,1.375-2.527,2.642
	c-2.012,5.165-3.302,10.538-4.563,15.91c-1.443,6.152-2.539,12.379-3.484,18.626c-1.094,7.238-1.806,14.519-2.207,21.829
	c-0.059,1.066-0.081,2.137,0.448,3.123"/>
<path class="st0" d="M945.379,158.276c-0.362-5.236-0.789-10.461-1.377-15.682c-0.797-7.077-1.912-14.092-3.208-21.087
	c-1.09-5.886-2.442-11.712-4.098-17.465c-0.404-1.404-0.885-2.788-1.396-4.157c-0.476-1.274-1.492-1.977-2.747-2.424
	c-11.216-4.002-22.101-8.846-33.234-13.061c-3.193-1.209-5.994-3.167-8.895-4.916c-1.645-0.992-2.173-4.487-0.742-6.321
	c3.159-4.047,4.815-8.694,6.018-13.573c0.214-0.867,0.525-1.678,1.38-2.088c2.319-1.114,3.072-3.271,3.496-5.513
	c0.715-3.787,1.409-7.587,1.602-11.453c0.044-0.883,0.097-1.84-0.451-2.504c-1.221-1.48-0.943-3.062-0.71-4.734
	c1.36-9.761-0.04-18.757-7.587-25.886c-2.974-2.809-6.382-4.596-10.69-3.34c-0.301,0.088-0.701,0.122-0.969-0.003
	c-4.037-1.88-8.414-2.409-12.716-3.236c-1.332,0-2.664,0-3.996,0c-6.559,1.041-11.927,4.301-16.66,8.819
	c-5.529,5.279-6.944,11.896-6.439,19.18c0.124,1.793,0.217,3.588,0.338,5.381c0.093,1.365-0.021,2.642-1.051,3.71
	c-0.7,0.726-0.768,1.707-0.623,2.639c0.707,4.53,0.995,9.134,2.37,13.549c0.392,1.259,1.013,2.384,2.209,2.956
	c1.584,0.758,2.145,2.118,2.443,3.655c0.769,3.97,2.225,7.623,4.506,10.995c2.057,3.041,0.945,7.149-2.16,9.026
	c-7.615,4.605-16.024,7.474-24.118,11.022c-5.418,2.375-10.791,4.886-16.415,6.776c-1.276,0.429-2.034,1.375-2.527,2.642
	c-2.012,5.165-3.302,10.538-4.563,15.91c-1.443,6.152-2.539,12.379-3.484,18.626c-1.094,7.238-1.806,14.519-2.207,21.829
	c-0.059,1.066-0.081,2.137,0.448,3.123"/>
<path class="st0" d="M1199.379,158.276c-0.362-5.236-0.789-10.461-1.377-15.682c-0.797-7.077-1.912-14.092-3.208-21.087
	c-1.09-5.886-2.442-11.712-4.098-17.465c-0.404-1.404-0.885-2.788-1.396-4.157c-0.476-1.274-1.492-1.977-2.747-2.424
	c-11.216-4.002-22.101-8.846-33.234-13.061c-3.193-1.209-5.994-3.167-8.895-4.916c-1.645-0.992-2.173-4.487-0.742-6.321
	c3.159-4.047,4.815-8.694,6.018-13.573c0.214-0.867,0.525-1.678,1.38-2.088c2.319-1.114,3.072-3.271,3.496-5.513
	c0.715-3.787,1.409-7.587,1.602-11.453c0.044-0.883,0.097-1.84-0.451-2.504c-1.221-1.48-0.943-3.062-0.71-4.734
	c1.36-9.761-0.04-18.757-7.587-25.886c-2.974-2.809-6.382-4.596-10.69-3.34c-0.301,0.088-0.701,0.122-0.969-0.003
	c-4.037-1.88-8.414-2.409-12.716-3.236c-1.332,0-2.664,0-3.996,0c-6.559,1.041-11.927,4.301-16.66,8.819
	c-5.529,5.279-6.944,11.896-6.439,19.18c0.124,1.793,0.217,3.588,0.338,5.381c0.092,1.365-0.021,2.642-1.051,3.71
	c-0.7,0.726-0.768,1.707-0.623,2.639c0.707,4.53,0.995,9.134,2.37,13.549c0.392,1.259,1.013,2.384,2.209,2.956
	c1.584,0.758,2.145,2.118,2.443,3.655c0.769,3.97,2.225,7.623,4.506,10.995c2.057,3.041,0.945,7.149-2.16,9.026
	c-7.615,4.605-16.024,7.474-24.118,11.022c-5.418,2.375-10.791,4.886-16.415,6.776c-1.276,0.429-2.034,1.375-2.527,2.642
	c-2.012,5.165-3.302,10.538-4.563,15.91c-1.443,6.152-2.539,12.379-3.484,18.626c-1.094,7.238-1.806,14.519-2.207,21.829
	c-0.058,1.066-0.081,2.137,0.448,3.123"/>
<line class="st1" x1="0.001" y1="103.333" x2="244.501" y2="103.833"/>
<line class="st1" x1="1215.002" y1="103.333" x2="1461.005" y2="103.33"/>
<line class="st1" x1="429.001" y1="103.334" x2="516.501" y2="103.834"/>
<line class="st1" x1="953.501" y1="103.834" x2="1041.001" y2="103.334"/>
</svg>