<!-- Generator: Adobe Illustrator 21.1.0, SVG Export Plug-In  -->
<svg version="1.1"
	 xmlns="http://www.w3.org/2000/svg" xmlns:xlink="http://www.w3.org/1999/xlink" xmlns:a="http://ns.adobe.com/AdobeSVGViewerExtensions/3.0/"
	 x="0px" y="0px" width="357.398px" height="1885.394px" viewBox="0 0 357.398 1885.394"
	 style="enable-background:new 0 0 357.398 1885.394;" xml:space="preserve">
<style type="text/css">
	.st0{fill:none;stroke:url(#SVGID_1_);stroke-width:0.5669;stroke-miterlimit:10;}
	.st1{fill:#000005;stroke:#FFFFFF;stroke-width:1.6677;stroke-miterlimit:10;}
	.st2{fill:#FFFFFF;}
	.st3{fill:none;stroke:url(#SVGID_2_);stroke-width:0.5669;stroke-miterlimit:10;}
</style>
<defs>
</defs>
<linearGradient id="SVGID_1_" gradientUnits="userSpaceOnUse" x1="181.3788" y1="1664" x2="181.3788" y2="-9.094947e-13">
	<stop  offset="0" style="stop-color:#FFFFFF"/>
	<stop  offset="1" style="stop-color:#000000"/>
</linearGradient>
<line class="st0" x1="181.299" y1="0" x2="181.458" y2="1664"/>
<path class="st1" d="M356.566,1879.265c-0.867-12.523-1.888-25.02-3.294-37.508c-1.906-16.927-4.573-33.707-7.672-50.436
	c-2.608-14.079-5.84-28.013-9.801-41.773c-0.966-3.357-2.116-6.668-3.339-9.942c-1.139-3.047-3.568-4.728-6.569-5.799
	c-26.826-9.572-52.862-21.158-79.489-31.24c-7.636-2.891-14.337-7.574-21.276-11.758c-3.934-2.372-5.198-10.731-1.774-15.118
	c7.555-9.679,11.517-20.795,14.393-32.463c0.511-2.073,1.256-4.013,3.3-4.994c5.547-2.664,7.348-7.823,8.361-13.186
	c1.71-9.059,3.371-18.146,3.831-27.393c0.105-2.112,0.233-4.402-1.078-5.99c-2.921-3.54-2.256-7.324-1.699-11.322
	c3.254-23.347-0.094-44.864-18.147-61.914c-7.114-6.719-15.265-10.994-25.569-7.989c-0.72,0.21-1.675,0.291-2.317-0.007
	c-9.656-4.496-20.124-5.762-30.414-7.74c-3.186,0-6.372,0-9.558,0c-15.687,2.49-28.527,10.287-39.847,21.094
	c-13.225,12.626-16.608,28.453-15.402,45.876c0.297,4.288,0.519,8.581,0.809,12.87c0.221,3.265-0.049,6.318-2.513,8.873
	c-1.675,1.737-1.837,4.083-1.489,6.313c1.691,10.836,2.381,21.847,5.668,32.407c0.937,3.011,2.423,5.701,5.283,7.071
	c3.788,1.814,5.131,5.067,5.843,8.741c1.84,9.496,5.322,18.233,10.777,26.298c4.919,7.273,2.259,17.099-5.166,21.589
	c-18.213,11.015-38.326,17.878-57.686,26.363c-12.959,5.68-25.809,11.687-39.262,16.208c-3.051,1.025-4.864,3.288-6.045,6.318
	c-4.812,12.353-7.899,25.205-10.913,38.054c-3.452,14.714-6.073,29.608-8.332,44.551c-2.617,17.311-4.32,34.726-5.279,52.211
	c-0.14,2.55-0.193,5.11,1.072,7.469"/>
<g>
	<path class="st2" d="M173.596,1635.973v-25.864c9.814-0.204,17.405-2.525,22.773-6.964c5.367-4.437,8.051-10.329,8.051-17.676
		v-3.52c0-6.53-2.123-11.734-6.364-15.611c-4.244-3.878-10.198-5.816-17.865-5.816c-7.464,0-13.369,1.79-17.713,5.367
		c-4.346,3.581-7.437,8.539-9.278,14.876l-5.061-1.534c2.044-7.257,5.724-13.035,11.042-17.328
		c5.315-4.294,12.369-6.441,21.163-6.441c9.302,0,16.613,2.531,21.929,7.591c5.315,5.06,7.975,11.784,7.975,20.166
		c0,9.201-2.813,16.41-8.435,21.623c-5.623,5.214-13.188,8.334-22.696,9.355v21.776H173.596z M176.51,1665.264
		c-2.353,0-4.064-0.486-5.137-1.457c-1.074-0.97-1.61-2.274-1.61-3.91v-1.534c0-1.635,0.536-2.938,1.61-3.911
		c1.074-0.97,2.785-1.457,5.137-1.457c2.248,0,3.91,0.486,4.984,1.457c1.074,0.973,1.611,2.276,1.611,3.911v1.534
		c0,1.636-0.537,2.94-1.611,3.91C180.42,1664.777,178.757,1665.264,176.51,1665.264z"/>
</g>
</svg>