<!-- Generator: Adobe Illustrator 21.1.0, SVG Export Plug-In  -->
<svg version="1.1"
	 xmlns="http://www.w3.org/2000/svg" xmlns:xlink="http://www.w3.org/1999/xlink" xmlns:a="http://ns.adobe.com/AdobeSVGViewerExtensions/3.0/"
	 x="0px" y="0px" width="1156px" height="14.44px" viewBox="0 0 1156 14.44" style="enable-background:new 0 0 1156 14.44;"
	 xml:space="preserve">
<style type="text/css">
	.st0{fill:#FFFFFF;}
</style>
<defs>
</defs>
<g>
	<path class="st0" d="M390.75,12.901h3.42V1.463h-3.42V0.152h4.939v12.749h3.42v1.311h-8.359V12.901z"/>
	<path class="st0" d="M413.474,0.152h2.45l-2.185,5.263h-1.272L413.474,0.152z"/>
	<path class="st0" d="M429.243,12.901h3.534V5.719h-3.534V4.408h5.054v8.493h3.307v1.311h-8.36V12.901z M433.537,2.242
		c-0.443,0-0.754-0.092-0.932-0.276c-0.177-0.183-0.266-0.415-0.266-0.693V0.969c0-0.279,0.089-0.51,0.266-0.694
		C432.783,0.092,433.094,0,433.537,0s0.754,0.092,0.931,0.275c0.177,0.184,0.267,0.415,0.267,0.694v0.304
		c0,0.279-0.09,0.51-0.267,0.693C434.291,2.15,433.98,2.242,433.537,2.242z"/>
	<path class="st0" d="M448.091,14.212V4.408h1.521v1.596h0.076c0.101-0.24,0.228-0.472,0.379-0.693
		c0.152-0.221,0.34-0.415,0.561-0.58c0.223-0.165,0.484-0.297,0.789-0.399c0.305-0.101,0.658-0.152,1.064-0.152
		c1.025,0,1.849,0.326,2.47,0.979c0.62,0.652,0.931,1.574,0.931,2.765v6.289h-1.52V8.189c0-0.899-0.197-1.567-0.59-2.004
		s-0.969-0.656-1.729-0.656c-0.305,0-0.602,0.038-0.893,0.114c-0.292,0.076-0.551,0.19-0.779,0.342
		c-0.229,0.152-0.412,0.349-0.551,0.589c-0.14,0.241-0.209,0.52-0.209,0.836v6.802H448.091z"/>
	<path class="st0" d="M471.404,14.212c-0.748,0-1.295-0.208-1.644-0.625s-0.522-0.954-0.522-1.611V5.719h-3.268V4.408h2.432
		c0.329,0,0.561-0.067,0.693-0.2s0.199-0.364,0.199-0.693V0.95h1.463v3.458h4.465v1.311h-4.465v7.182h4.465v1.311H471.404z"/>
	<path class="st0" d="M490.1,14.44c-0.709,0-1.346-0.121-1.91-0.361c-0.562-0.241-1.045-0.586-1.443-1.036
		c-0.398-0.449-0.707-0.988-0.922-1.615c-0.215-0.627-0.322-1.327-0.322-2.1c0-0.785,0.11-1.495,0.332-2.128
		s0.529-1.175,0.922-1.625s0.864-0.795,1.415-1.036c0.552-0.241,1.162-0.361,1.833-0.361c0.659,0,1.258,0.12,1.796,0.361
		s0.997,0.573,1.378,0.998c0.38,0.424,0.671,0.928,0.874,1.511c0.202,0.583,0.304,1.222,0.304,1.919V9.69h-7.258v0.456
		c0,0.431,0.069,0.83,0.209,1.197c0.139,0.367,0.338,0.684,0.598,0.95s0.577,0.472,0.951,0.618c0.373,0.146,0.788,0.218,1.244,0.218
		c0.658,0,1.229-0.152,1.71-0.456c0.481-0.304,0.849-0.722,1.103-1.254l1.121,0.76c-0.292,0.659-0.777,1.2-1.454,1.625
		C491.901,14.228,491.074,14.44,490.1,14.44z M490.004,5.434c-0.418,0-0.804,0.076-1.158,0.228
		c-0.355,0.152-0.662,0.361-0.922,0.627s-0.463,0.58-0.607,0.94c-0.146,0.361-0.219,0.757-0.219,1.188V8.55h5.624V8.341
		c0-0.431-0.067-0.823-0.2-1.178c-0.133-0.354-0.316-0.662-0.551-0.921s-0.52-0.459-0.854-0.599
		C490.78,5.504,490.41,5.434,490.004,5.434z"/>
	<path class="st0" d="M504.691,12.901h2.869V5.719h-2.869V4.408h4.389v2.47h0.096c0.202-0.772,0.586-1.377,1.149-1.814
		s1.282-0.655,2.156-0.655h1.368v1.52h-1.844c-0.873,0-1.58,0.252-2.117,0.758c-0.539,0.505-0.809,1.168-0.809,1.99v4.225h3.801
		v1.311h-8.189V12.901z"/>
	<path class="st0" d="M528.1,14.44c-0.709,0-1.346-0.121-1.91-0.361c-0.562-0.241-1.045-0.586-1.443-1.036
		c-0.398-0.449-0.707-0.988-0.922-1.615c-0.215-0.627-0.322-1.327-0.322-2.1c0-0.785,0.11-1.495,0.332-2.128
		s0.529-1.175,0.922-1.625s0.864-0.795,1.415-1.036c0.552-0.241,1.162-0.361,1.833-0.361c0.659,0,1.258,0.12,1.796,0.361
		s0.997,0.573,1.378,0.998c0.38,0.424,0.671,0.928,0.874,1.511c0.202,0.583,0.304,1.222,0.304,1.919V9.69h-7.258v0.456
		c0,0.431,0.069,0.83,0.209,1.197c0.139,0.367,0.338,0.684,0.598,0.95s0.577,0.472,0.951,0.618c0.373,0.146,0.788,0.218,1.244,0.218
		c0.658,0,1.229-0.152,1.71-0.456c0.481-0.304,0.849-0.722,1.103-1.254l1.121,0.76c-0.292,0.659-0.777,1.2-1.454,1.625
		C529.901,14.228,529.074,14.44,528.1,14.44z M528.004,5.434c-0.418,0-0.804,0.076-1.158,0.228
		c-0.355,0.152-0.662,0.361-0.922,0.627s-0.463,0.58-0.607,0.94c-0.146,0.361-0.219,0.757-0.219,1.188V8.55h5.624V8.341
		c0-0.431-0.067-0.823-0.2-1.178c-0.133-0.354-0.316-0.662-0.551-0.921s-0.52-0.459-0.854-0.599
		C528.78,5.504,528.41,5.434,528.004,5.434z"/>
	<path class="st0" d="M547.042,14.44c-1.026,0-1.909-0.174-2.65-0.522s-1.372-0.813-1.891-1.396l1.026-0.893
		c0.469,0.494,0.98,0.874,1.539,1.14c0.557,0.266,1.229,0.399,2.014,0.399c0.76,0,1.384-0.136,1.871-0.409
		c0.488-0.272,0.732-0.699,0.732-1.282c0-0.253-0.048-0.466-0.143-0.637c-0.096-0.171-0.226-0.307-0.391-0.408
		c-0.164-0.102-0.348-0.181-0.551-0.238c-0.202-0.057-0.418-0.104-0.646-0.142l-1.539-0.229c-0.342-0.05-0.712-0.12-1.111-0.209
		c-0.399-0.088-0.764-0.23-1.093-0.427c-0.33-0.196-0.605-0.459-0.826-0.789c-0.223-0.329-0.332-0.76-0.332-1.292
		c0-0.494,0.098-0.921,0.294-1.282c0.196-0.361,0.472-0.665,0.826-0.912s0.772-0.431,1.255-0.551
		c0.48-0.121,1.006-0.181,1.576-0.181c0.887,0,1.656,0.14,2.309,0.418c0.652,0.279,1.213,0.665,1.682,1.159l-0.988,0.931
		c-0.113-0.139-0.256-0.282-0.428-0.428c-0.17-0.145-0.379-0.278-0.627-0.398c-0.246-0.121-0.535-0.219-0.864-0.295
		c-0.329-0.076-0.71-0.114-1.14-0.114c-0.773,0-1.365,0.133-1.777,0.399c-0.411,0.266-0.617,0.652-0.617,1.159
		c0,0.253,0.048,0.465,0.143,0.636c0.096,0.171,0.225,0.307,0.39,0.409s0.352,0.181,0.561,0.237
		c0.209,0.057,0.421,0.104,0.637,0.143l1.538,0.228c0.355,0.051,0.729,0.121,1.121,0.209c0.393,0.089,0.754,0.231,1.084,0.427
		c0.329,0.197,0.604,0.459,0.826,0.789c0.221,0.33,0.332,0.76,0.332,1.292c0,0.976-0.377,1.729-1.13,2.261
		C549.3,14.174,548.296,14.44,547.042,14.44z"/>
	<path class="st0" d="M566.042,14.44c-1.026,0-1.909-0.174-2.65-0.522s-1.372-0.813-1.891-1.396l1.026-0.893
		c0.469,0.494,0.98,0.874,1.539,1.14c0.557,0.266,1.229,0.399,2.014,0.399c0.76,0,1.384-0.136,1.871-0.409
		c0.488-0.272,0.732-0.699,0.732-1.282c0-0.253-0.048-0.466-0.143-0.637c-0.096-0.171-0.226-0.307-0.391-0.408
		c-0.164-0.102-0.348-0.181-0.551-0.238c-0.202-0.057-0.418-0.104-0.646-0.142l-1.539-0.229c-0.342-0.05-0.712-0.12-1.111-0.209
		c-0.399-0.088-0.764-0.23-1.093-0.427c-0.33-0.196-0.605-0.459-0.826-0.789c-0.223-0.329-0.332-0.76-0.332-1.292
		c0-0.494,0.098-0.921,0.294-1.282c0.196-0.361,0.472-0.665,0.826-0.912s0.772-0.431,1.255-0.551
		c0.48-0.121,1.006-0.181,1.576-0.181c0.887,0,1.656,0.14,2.309,0.418c0.652,0.279,1.213,0.665,1.682,1.159l-0.988,0.931
		c-0.113-0.139-0.256-0.282-0.428-0.428c-0.17-0.145-0.379-0.278-0.627-0.398c-0.246-0.121-0.535-0.219-0.864-0.295
		c-0.329-0.076-0.71-0.114-1.14-0.114c-0.773,0-1.365,0.133-1.777,0.399c-0.411,0.266-0.617,0.652-0.617,1.159
		c0,0.253,0.048,0.465,0.143,0.636c0.096,0.171,0.225,0.307,0.39,0.409s0.352,0.181,0.561,0.237
		c0.209,0.057,0.421,0.104,0.637,0.143l1.538,0.228c0.355,0.051,0.729,0.121,1.121,0.209c0.393,0.089,0.754,0.231,1.084,0.427
		c0.329,0.197,0.604,0.459,0.826,0.789c0.221,0.33,0.332,0.76,0.332,1.292c0,0.976-0.377,1.729-1.13,2.261
		C568.3,14.174,567.296,14.44,566.042,14.44z"/>
	<path class="st0" d="M585.099,14.44c-0.71,0-1.347-0.121-1.909-0.361c-0.564-0.241-1.045-0.586-1.444-1.036
		c-0.399-0.449-0.706-0.988-0.921-1.615c-0.217-0.627-0.324-1.327-0.324-2.1c0-0.785,0.111-1.495,0.333-2.128
		s0.528-1.175,0.921-1.625s0.865-0.795,1.416-1.036s1.162-0.361,1.834-0.361c0.658,0,1.257,0.12,1.795,0.361
		c0.539,0.241,0.998,0.573,1.378,0.998s0.671,0.928,0.874,1.511c0.202,0.583,0.304,1.222,0.304,1.919V9.69h-7.258v0.456
		c0,0.431,0.069,0.83,0.209,1.197s0.339,0.684,0.599,0.95s0.576,0.472,0.949,0.618c0.374,0.146,0.789,0.218,1.245,0.218
		c0.658,0,1.229-0.152,1.71-0.456c0.48-0.304,0.849-0.722,1.102-1.254l1.121,0.76c-0.291,0.659-0.775,1.2-1.453,1.625
		S586.074,14.44,585.099,14.44z M585.004,5.434c-0.418,0-0.805,0.076-1.159,0.228s-0.662,0.361-0.922,0.627s-0.462,0.58-0.608,0.94
		c-0.145,0.361-0.218,0.757-0.218,1.188V8.55h5.624V8.341c0-0.431-0.066-0.823-0.199-1.178c-0.133-0.354-0.317-0.662-0.551-0.921
		c-0.235-0.26-0.52-0.459-0.855-0.599C585.779,5.504,585.408,5.434,585.004,5.434z"/>
	<path class="st0" d="M619.242,12.901h3.533V5.719h-3.533V4.408h5.053v8.493h3.307v1.311h-8.359V12.901z M623.535,2.242
		c-0.443,0-0.754-0.092-0.931-0.276c-0.177-0.183-0.267-0.415-0.267-0.693V0.969c0-0.279,0.09-0.51,0.267-0.694
		C622.781,0.092,623.092,0,623.535,0s0.754,0.092,0.932,0.275c0.177,0.184,0.266,0.415,0.266,0.694v0.304
		c0,0.279-0.089,0.51-0.266,0.693C624.289,2.15,623.979,2.242,623.535,2.242z"/>
	<path class="st0" d="M638.089,14.212V4.408h1.521v1.596h0.076c0.101-0.24,0.228-0.472,0.379-0.693
		c0.152-0.221,0.34-0.415,0.561-0.58c0.223-0.165,0.484-0.297,0.789-0.399c0.305-0.101,0.658-0.152,1.064-0.152
		c1.025,0,1.849,0.326,2.47,0.979c0.62,0.652,0.931,1.574,0.931,2.765v6.289h-1.52V8.189c0-0.899-0.197-1.567-0.59-2.004
		s-0.969-0.656-1.729-0.656c-0.305,0-0.602,0.038-0.893,0.114c-0.292,0.076-0.551,0.19-0.779,0.342
		c-0.229,0.152-0.412,0.349-0.551,0.589c-0.14,0.241-0.209,0.52-0.209,0.836v6.802H638.089z"/>
	<path class="st0" d="M675.823,14.212v-1.273h3.306V2.223h-3.306V0.95h8.208v1.273h-3.307v10.716h3.307v1.273H675.823z"/>
	<path class="st0" d="M699.401,14.212c-0.747,0-1.295-0.208-1.644-0.625c-0.348-0.417-0.522-0.954-0.522-1.611V5.719h-3.268V4.408
		h2.432c0.329,0,0.561-0.067,0.694-0.2c0.133-0.133,0.199-0.364,0.199-0.693V0.95h1.463v3.458h4.465v1.311h-4.465v7.182h4.465v1.311
		H699.401z"/>
	<path class="st0" d="M721.631,14.212c-0.595,0-1.02-0.152-1.272-0.456c-0.253-0.304-0.411-0.684-0.475-1.14h-0.095
		c-0.216,0.57-0.561,1.016-1.036,1.339s-1.111,0.484-1.909,0.484c-1.026,0-1.844-0.266-2.451-0.798s-0.912-1.26-0.912-2.185
		c0-0.912,0.332-1.615,0.998-2.109c0.664-0.494,1.738-0.741,3.221-0.741h2.09V7.644c0-0.718-0.203-1.256-0.608-1.615
		s-0.981-0.538-1.729-0.538c-0.658,0-1.197,0.13-1.615,0.389c-0.418,0.26-0.753,0.611-1.006,1.055l-1.026-0.76
		c0.126-0.253,0.298-0.501,0.513-0.744c0.215-0.243,0.481-0.457,0.799-0.644c0.316-0.187,0.677-0.334,1.082-0.444
		c0.406-0.109,0.855-0.164,1.35-0.164c1.152,0,2.067,0.292,2.745,0.876s1.017,1.396,1.017,2.437v5.408h1.368v1.311H721.631z
		 M717.109,13.167c0.393,0,0.75-0.047,1.074-0.143c0.322-0.095,0.604-0.221,0.845-0.38c0.241-0.158,0.428-0.348,0.561-0.57
		c0.134-0.222,0.2-0.459,0.2-0.713V9.747h-2.09c-0.912,0-1.578,0.126-1.996,0.38s-0.627,0.621-0.627,1.102v0.399
		c0,0.507,0.181,0.89,0.542,1.15C715.979,13.038,716.477,13.167,717.109,13.167z"/>
	<path class="st0" d="M732.746,12.901h3.42V1.463h-3.42V0.152h4.94v12.749h3.42v1.311h-8.36V12.901z"/>
	<path class="st0" d="M752.24,12.901h3.533V5.719h-3.533V4.408h5.054v8.493h3.306v1.311h-8.359V12.901z M756.534,2.242
		c-0.444,0-0.754-0.092-0.931-0.276c-0.178-0.183-0.267-0.415-0.267-0.693V0.969c0-0.279,0.089-0.51,0.267-0.694
		C755.78,0.092,756.09,0,756.534,0c0.443,0,0.753,0.092,0.931,0.275c0.178,0.184,0.266,0.415,0.266,0.694v0.304
		c0,0.279-0.088,0.51-0.266,0.693C757.287,2.15,756.978,2.242,756.534,2.242z"/>
	<path class="st0" d="M778.631,14.212c-0.596,0-1.02-0.152-1.273-0.456c-0.253-0.304-0.411-0.684-0.475-1.14h-0.095
		c-0.216,0.57-0.561,1.016-1.036,1.339c-0.475,0.323-1.111,0.484-1.908,0.484c-1.027,0-1.844-0.266-2.451-0.798
		c-0.608-0.532-0.912-1.26-0.912-2.185c0-0.912,0.332-1.615,0.997-2.109s1.739-0.741,3.221-0.741h2.09V7.644
		c0-0.718-0.202-1.256-0.608-1.615c-0.405-0.359-0.981-0.538-1.729-0.538c-0.658,0-1.197,0.13-1.615,0.389
		c-0.418,0.26-0.754,0.611-1.007,1.055l-1.026-0.76c0.127-0.253,0.298-0.501,0.514-0.744c0.215-0.243,0.48-0.457,0.798-0.644
		c0.316-0.187,0.677-0.334,1.083-0.444c0.405-0.109,0.855-0.164,1.349-0.164c1.153,0,2.067,0.292,2.745,0.876
		s1.018,1.396,1.018,2.437v5.408h1.367v1.311H778.631z M774.109,13.167c0.393,0,0.75-0.047,1.073-0.143
		c0.323-0.095,0.604-0.221,0.845-0.38c0.241-0.158,0.428-0.348,0.561-0.57c0.134-0.222,0.2-0.459,0.2-0.713V9.747h-2.09
		c-0.912,0-1.577,0.126-1.995,0.38s-0.627,0.621-0.627,1.102v0.399c0,0.507,0.18,0.89,0.541,1.15S773.476,13.167,774.109,13.167z"/>
</g>
<g>
	<polygon class="st0" points="0,7.991 0,7.424 345.5,6.93 345.5,7.497 	"/>
</g>
<g>
	<rect x="819.5" y="7.93" class="st0" width="336.5" height="0.567"/>
</g>
</svg>