<!-- Generator: Adobe Illustrator 21.1.0, SVG Export Plug-In  -->
<svg version="1.1"
	 xmlns="http://www.w3.org/2000/svg" xmlns:xlink="http://www.w3.org/1999/xlink" xmlns:a="http://ns.adobe.com/AdobeSVGViewerExtensions/3.0/"
	 x="0px" y="0px" width="1152.001px" height="18.012px" viewBox="0 0 1152.001 18.012"
	 style="enable-background:new 0 0 1152.001 18.012;" xml:space="preserve">
<style type="text/css">
	.st0{fill:#FFFFFF;}
</style>
<defs>
</defs>
<g>
	<path class="st0" d="M232.752,12.901h3.42V1.463h-3.42V0.152h4.94v12.749h3.42v1.311h-8.36V12.901z"/>
	<path class="st0" d="M256.103,14.44c-0.709,0-1.346-0.121-1.909-0.361c-0.563-0.241-1.045-0.586-1.444-1.036
		c-0.398-0.449-0.706-0.988-0.921-1.615c-0.216-0.627-0.323-1.327-0.323-2.1c0-0.785,0.111-1.495,0.332-2.128
		c0.223-0.633,0.529-1.175,0.922-1.625s0.865-0.795,1.416-1.036s1.162-0.361,1.833-0.361c0.659,0,1.257,0.12,1.796,0.361
		c0.538,0.241,0.997,0.573,1.377,0.998c0.381,0.424,0.672,0.928,0.875,1.511c0.201,0.583,0.303,1.222,0.303,1.919V9.69h-7.258v0.456
		c0,0.431,0.07,0.83,0.209,1.197c0.14,0.367,0.339,0.684,0.599,0.95s0.577,0.472,0.95,0.618s0.789,0.218,1.244,0.218
		c0.658,0,1.229-0.152,1.711-0.456c0.48-0.304,0.848-0.722,1.102-1.254l1.121,0.76c-0.291,0.659-0.776,1.2-1.453,1.625
		C257.905,14.228,257.078,14.44,256.103,14.44z M256.008,5.434c-0.418,0-0.804,0.076-1.159,0.228
		c-0.354,0.152-0.662,0.361-0.922,0.627s-0.462,0.58-0.607,0.94s-0.219,0.757-0.219,1.188V8.55h5.625V8.341
		c0-0.431-0.067-0.823-0.2-1.178c-0.133-0.354-0.317-0.662-0.551-0.921c-0.235-0.26-0.52-0.459-0.854-0.599
		C256.784,5.504,256.413,5.434,256.008,5.434z"/>
	<path class="st0" d="M290.036,4.408h1.521v1.596h0.075c0.634-1.216,1.641-1.824,3.021-1.824c1.203,0,2.145,0.45,2.822,1.349
		c0.677,0.9,1.016,2.16,1.016,3.781c0,1.622-0.339,2.882-1.016,3.781c-0.678,0.899-1.619,1.349-2.822,1.349
		c-1.381,0-2.388-0.608-3.021-1.824h-0.075v5.396h-1.521V4.408z M294.064,13.091c0.886,0,1.573-0.27,2.062-0.808
		c0.487-0.538,0.731-1.251,0.731-2.138V8.474c0-0.887-0.244-1.599-0.731-2.138c-0.488-0.538-1.176-0.808-2.062-0.808
		c-0.342,0-0.665,0.045-0.97,0.133c-0.303,0.089-0.569,0.218-0.797,0.389c-0.229,0.171-0.408,0.38-0.542,0.627
		c-0.133,0.247-0.199,0.535-0.199,0.864v3.534c0,0.33,0.066,0.618,0.199,0.864c0.134,0.247,0.313,0.456,0.542,0.627
		c0.228,0.171,0.494,0.301,0.797,0.39C293.399,13.047,293.723,13.091,294.064,13.091z"/>
	<path class="st0" d="M312.932,14.44c-0.685,0-1.302-0.121-1.853-0.361c-0.551-0.241-1.02-0.586-1.406-1.036
		c-0.387-0.449-0.682-0.988-0.883-1.615c-0.203-0.627-0.305-1.333-0.305-2.119c0-0.772,0.102-1.476,0.305-2.109
		c0.201-0.633,0.496-1.175,0.883-1.625s0.855-0.795,1.406-1.036s1.168-0.361,1.853-0.361c0.684,0,1.302,0.12,1.853,0.361
		s1.02,0.586,1.406,1.036c0.386,0.45,0.68,0.991,0.883,1.625s0.305,1.336,0.305,2.109c0,0.786-0.102,1.491-0.305,2.119
		c-0.203,0.627-0.497,1.166-0.883,1.615c-0.387,0.45-0.855,0.795-1.406,1.036C314.233,14.319,313.615,14.44,312.932,14.44z
		 M312.932,13.129c0.849,0,1.532-0.253,2.052-0.76c0.52-0.506,0.779-1.292,0.779-2.356V8.607c0-1.064-0.26-1.849-0.779-2.356
		c-0.52-0.506-1.203-0.76-2.052-0.76s-1.533,0.253-2.052,0.76c-0.52,0.507-0.779,1.292-0.779,2.356v1.406
		c0,1.064,0.26,1.85,0.779,2.356C311.398,12.876,312.083,13.129,312.932,13.129z"/>
	<path class="st0" d="M332.045,14.44c-1.026,0-1.909-0.174-2.65-0.522s-1.372-0.813-1.891-1.396l1.026-0.893
		c0.469,0.494,0.98,0.874,1.539,1.14c0.557,0.266,1.229,0.399,2.014,0.399c0.76,0,1.384-0.136,1.871-0.409
		c0.488-0.272,0.732-0.699,0.732-1.282c0-0.253-0.048-0.466-0.143-0.637c-0.096-0.171-0.226-0.307-0.391-0.408
		c-0.164-0.102-0.348-0.181-0.551-0.238c-0.202-0.057-0.418-0.104-0.646-0.142l-1.539-0.229c-0.342-0.05-0.712-0.12-1.111-0.209
		c-0.399-0.088-0.764-0.23-1.093-0.427c-0.33-0.196-0.605-0.459-0.826-0.789c-0.223-0.329-0.332-0.76-0.332-1.292
		c0-0.494,0.098-0.921,0.294-1.282c0.196-0.361,0.472-0.665,0.826-0.912s0.772-0.431,1.255-0.551
		c0.48-0.121,1.006-0.181,1.576-0.181c0.887,0,1.656,0.14,2.309,0.418c0.652,0.279,1.213,0.665,1.682,1.159l-0.988,0.931
		c-0.113-0.139-0.256-0.282-0.428-0.428c-0.17-0.145-0.379-0.278-0.627-0.398c-0.246-0.121-0.535-0.219-0.864-0.295
		c-0.329-0.076-0.71-0.114-1.14-0.114c-0.773,0-1.365,0.133-1.777,0.399c-0.411,0.266-0.617,0.652-0.617,1.159
		c0,0.253,0.048,0.465,0.143,0.636c0.096,0.171,0.225,0.307,0.39,0.409s0.352,0.181,0.561,0.237
		c0.209,0.057,0.421,0.104,0.637,0.143l1.538,0.228c0.355,0.051,0.729,0.121,1.121,0.209c0.393,0.089,0.754,0.231,1.084,0.427
		c0.329,0.197,0.604,0.459,0.826,0.789c0.221,0.33,0.332,0.76,0.332,1.292c0,0.976-0.377,1.729-1.13,2.261
		C334.303,14.174,333.299,14.44,332.045,14.44z"/>
	<path class="st0" d="M351.405,14.212c-0.747,0-1.295-0.208-1.643-0.625c-0.349-0.417-0.523-0.954-0.523-1.611V5.719h-3.268V4.408
		h2.432c0.33,0,0.561-0.067,0.694-0.2c0.133-0.133,0.199-0.364,0.199-0.693V0.95h1.463v3.458h4.466v1.311h-4.466v7.182h4.466v1.311
		H351.405z"/>
	<path class="st0" d="M372.249,12.616h-0.076c-0.102,0.241-0.229,0.472-0.381,0.693c-0.151,0.222-0.338,0.415-0.561,0.58
		c-0.221,0.165-0.484,0.298-0.788,0.399s-0.659,0.152-1.063,0.152c-1.026,0-1.85-0.326-2.471-0.979s-0.931-1.574-0.931-2.765V4.408
		h1.521v6.023c0,0.899,0.195,1.567,0.588,2.004s0.97,0.656,1.729,0.656c0.304,0,0.602-0.038,0.894-0.114
		c0.291-0.076,0.551-0.19,0.778-0.342c0.228-0.152,0.411-0.345,0.552-0.58c0.139-0.234,0.209-0.516,0.209-0.846V4.408h1.52v9.804
		h-1.52V12.616z"/>
	<path class="st0" d="M384.693,12.901h2.869V5.719h-2.869V4.408h4.39v2.47h0.094c0.203-0.772,0.586-1.377,1.15-1.814
		c0.563-0.437,1.282-0.655,2.156-0.655h1.368v1.52h-1.843c-0.875,0-1.58,0.252-2.119,0.758c-0.538,0.505-0.807,1.168-0.807,1.99
		v4.225h3.799v1.311h-8.188V12.901z"/>
	<path class="st0" d="M408.102,14.44c-0.71,0-1.347-0.121-1.909-0.361c-0.564-0.241-1.045-0.586-1.444-1.036
		c-0.399-0.449-0.706-0.988-0.921-1.615c-0.217-0.627-0.324-1.327-0.324-2.1c0-0.785,0.111-1.495,0.333-2.128
		s0.528-1.175,0.921-1.625s0.865-0.795,1.416-1.036s1.162-0.361,1.834-0.361c0.658,0,1.257,0.12,1.795,0.361
		c0.539,0.241,0.998,0.573,1.378,0.998s0.671,0.928,0.874,1.511c0.202,0.583,0.304,1.222,0.304,1.919V9.69H405.1v0.456
		c0,0.431,0.069,0.83,0.209,1.197s0.339,0.684,0.599,0.95s0.576,0.472,0.949,0.618c0.374,0.146,0.789,0.218,1.245,0.218
		c0.658,0,1.229-0.152,1.71-0.456c0.48-0.304,0.849-0.722,1.102-1.254l1.121,0.76c-0.291,0.659-0.775,1.2-1.453,1.625
		S409.077,14.44,408.102,14.44z M408.007,5.434c-0.418,0-0.805,0.076-1.159,0.228s-0.662,0.361-0.922,0.627s-0.462,0.58-0.608,0.94
		c-0.145,0.361-0.218,0.757-0.218,1.188V8.55h5.624V8.341c0-0.431-0.066-0.823-0.199-1.178c-0.133-0.354-0.317-0.662-0.551-0.921
		c-0.235-0.26-0.52-0.459-0.855-0.599C408.782,5.504,408.411,5.434,408.007,5.434z"/>
	<path class="st0" d="M442.092,14.212V4.408h1.521v1.596h0.076c0.101-0.24,0.228-0.472,0.379-0.693
		c0.152-0.221,0.34-0.415,0.561-0.58c0.223-0.165,0.484-0.297,0.789-0.399c0.305-0.101,0.658-0.152,1.064-0.152
		c1.025,0,1.849,0.326,2.47,0.979c0.62,0.652,0.931,1.574,0.931,2.765v6.289h-1.52V8.189c0-0.899-0.197-1.567-0.59-2.004
		s-0.969-0.656-1.729-0.656c-0.305,0-0.602,0.038-0.893,0.114c-0.292,0.076-0.551,0.19-0.779,0.342
		c-0.229,0.152-0.412,0.349-0.551,0.589c-0.14,0.241-0.209,0.52-0.209,0.836v6.802H442.092z"/>
	<path class="st0" d="M465.101,14.44c-0.709,0-1.346-0.121-1.909-0.361c-0.563-0.241-1.045-0.586-1.444-1.036
		c-0.398-0.449-0.706-0.988-0.921-1.615c-0.216-0.627-0.323-1.327-0.323-2.1c0-0.785,0.111-1.495,0.332-2.128
		c0.223-0.633,0.529-1.175,0.922-1.625s0.865-0.795,1.416-1.036s1.162-0.361,1.833-0.361c0.659,0,1.257,0.12,1.796,0.361
		c0.538,0.241,0.997,0.573,1.377,0.998c0.381,0.424,0.672,0.928,0.875,1.511c0.201,0.583,0.303,1.222,0.303,1.919V9.69h-7.258v0.456
		c0,0.431,0.07,0.83,0.209,1.197c0.14,0.367,0.339,0.684,0.599,0.95s0.577,0.472,0.95,0.618s0.789,0.218,1.244,0.218
		c0.658,0,1.229-0.152,1.711-0.456c0.48-0.304,0.848-0.722,1.102-1.254l1.121,0.76c-0.291,0.659-0.776,1.2-1.453,1.625
		C466.903,14.228,466.076,14.44,465.101,14.44z M465.006,5.434c-0.418,0-0.804,0.076-1.159,0.228
		c-0.354,0.152-0.662,0.361-0.922,0.627s-0.462,0.58-0.607,0.94s-0.219,0.757-0.219,1.188V8.55h5.625V8.341
		c0-0.431-0.067-0.823-0.2-1.178c-0.133-0.354-0.317-0.662-0.551-0.921c-0.235-0.26-0.52-0.459-0.854-0.599
		C465.782,5.504,465.411,5.434,465.006,5.434z"/>
	<path class="st0" d="M480.243,12.901h3.534V5.719h-3.534V4.408h5.055v8.493h3.306v1.311h-8.36V12.901z M484.538,2.242
		c-0.444,0-0.754-0.092-0.932-0.276c-0.178-0.183-0.266-0.415-0.266-0.693V0.969c0-0.279,0.088-0.51,0.266-0.694
		C483.784,0.092,484.094,0,484.538,0c0.443,0,0.753,0.092,0.93,0.275c0.178,0.184,0.267,0.415,0.267,0.694v0.304
		c0,0.279-0.089,0.51-0.267,0.693C485.291,2.15,484.981,2.242,484.538,2.242z"/>
	<path class="st0" d="M522.271,14.44c-0.71,0-1.339-0.124-1.891-0.37c-0.551-0.247-1.017-0.592-1.396-1.036
		s-0.668-0.981-0.864-1.615c-0.197-0.633-0.295-1.336-0.295-2.109s0.102-1.476,0.305-2.109c0.202-0.633,0.494-1.175,0.873-1.625
		c0.381-0.45,0.843-0.795,1.388-1.036c0.544-0.241,1.165-0.361,1.862-0.361c0.949,0,1.723,0.209,2.317,0.627
		s1.032,0.963,1.312,1.634l-1.217,0.646c-0.178-0.506-0.472-0.899-0.883-1.178c-0.412-0.279-0.922-0.418-1.529-0.418
		c-0.443,0-0.84,0.073-1.188,0.218c-0.35,0.146-0.644,0.352-0.884,0.618c-0.241,0.266-0.421,0.583-0.542,0.95
		c-0.12,0.368-0.18,0.767-0.18,1.197v1.672c0,0.431,0.06,0.83,0.18,1.197c0.121,0.367,0.301,0.684,0.542,0.95
		c0.24,0.266,0.538,0.472,0.894,0.618c0.354,0.146,0.76,0.218,1.215,0.218c0.658,0,1.203-0.152,1.635-0.456
		c0.43-0.304,0.771-0.722,1.025-1.254l1.084,0.741c-0.292,0.659-0.745,1.204-1.359,1.634
		C524.061,14.225,523.259,14.44,522.271,14.44z"/>
	<path class="st0" d="M540.929,14.44c-0.684,0-1.301-0.121-1.852-0.361c-0.552-0.241-1.021-0.586-1.406-1.036
		c-0.387-0.449-0.682-0.988-0.884-1.615c-0.202-0.627-0.304-1.333-0.304-2.119c0-0.772,0.102-1.476,0.304-2.109
		s0.497-1.175,0.884-1.625c0.386-0.45,0.854-0.795,1.406-1.036c0.551-0.241,1.168-0.361,1.852-0.361s1.302,0.12,1.854,0.361
		c0.551,0.241,1.019,0.586,1.405,1.036c0.386,0.45,0.681,0.991,0.884,1.625c0.202,0.633,0.304,1.336,0.304,2.109
		c0,0.786-0.102,1.491-0.304,2.119c-0.203,0.627-0.498,1.166-0.884,1.615c-0.387,0.45-0.854,0.795-1.405,1.036
		C542.23,14.319,541.612,14.44,540.929,14.44z M540.929,13.129c0.849,0,1.533-0.253,2.053-0.76c0.519-0.506,0.778-1.292,0.778-2.356
		V8.607c0-1.064-0.26-1.849-0.778-2.356c-0.52-0.506-1.204-0.76-2.053-0.76s-1.533,0.253-2.052,0.76
		c-0.52,0.507-0.778,1.292-0.778,2.356v1.406c0,1.064,0.259,1.85,0.778,2.356C539.396,12.876,540.08,13.129,540.929,13.129z"/>
	<path class="st0" d="M556.091,14.212V4.408h1.52v1.596h0.076c0.102-0.24,0.229-0.472,0.381-0.693
		c0.152-0.221,0.338-0.415,0.561-0.58c0.221-0.165,0.484-0.297,0.788-0.399c0.304-0.101,0.659-0.152,1.063-0.152
		c1.026,0,1.85,0.326,2.471,0.979c0.62,0.652,0.931,1.574,0.931,2.765v6.289h-1.521V8.189c0-0.899-0.195-1.567-0.588-2.004
		s-0.969-0.656-1.729-0.656c-0.304,0-0.602,0.038-0.894,0.114c-0.291,0.076-0.551,0.19-0.778,0.342
		c-0.228,0.152-0.411,0.349-0.552,0.589c-0.139,0.241-0.209,0.52-0.209,0.836v6.802H556.091z"/>
	<path class="st0" d="M574.806,12.901h3.307V5.719h-3.496V4.408h3.496V2.394c0-0.658,0.174-1.197,0.521-1.615
		c0.35-0.418,0.896-0.627,1.645-0.627h3.287v1.311h-3.934v2.945h3.934v1.311h-3.934v7.182h3.496v1.311h-8.322V12.901z"/>
	<path class="st0" d="M593.691,12.901h2.869V5.719h-2.869V4.408h4.39v2.47h0.094c0.203-0.772,0.586-1.377,1.15-1.814
		c0.563-0.437,1.282-0.655,2.156-0.655h1.368v1.52h-1.843c-0.875,0-1.58,0.252-2.119,0.758c-0.538,0.505-0.807,1.168-0.807,1.99
		v4.225h3.799v1.311h-8.188V12.901z"/>
	<path class="st0" d="M616.929,14.44c-0.684,0-1.302-0.121-1.853-0.361c-0.552-0.241-1.021-0.586-1.406-1.036
		c-0.386-0.449-0.681-0.988-0.884-1.615c-0.202-0.627-0.304-1.333-0.304-2.119c0-0.772,0.102-1.476,0.304-2.109
		c0.203-0.633,0.498-1.175,0.884-1.625s0.854-0.795,1.406-1.036c0.551-0.241,1.169-0.361,1.853-0.361s1.301,0.12,1.853,0.361
		c0.551,0.241,1.019,0.586,1.405,1.036s0.682,0.991,0.884,1.625s0.304,1.336,0.304,2.109c0,0.786-0.102,1.491-0.304,2.119
		c-0.202,0.627-0.497,1.166-0.884,1.615c-0.387,0.45-0.854,0.795-1.405,1.036C618.229,14.319,617.612,14.44,616.929,14.44z
		 M616.929,13.129c0.848,0,1.532-0.253,2.052-0.76c0.519-0.506,0.778-1.292,0.778-2.356V8.607c0-1.064-0.26-1.849-0.778-2.356
		c-0.52-0.506-1.204-0.76-2.052-0.76c-0.85,0-1.533,0.253-2.053,0.76c-0.52,0.507-0.778,1.292-0.778,2.356v1.406
		c0,1.064,0.259,1.85,0.778,2.356C615.396,12.876,616.079,13.129,616.929,13.129z"/>
	<path class="st0" d="M632.091,14.212V4.408h1.52v1.596h0.076c0.102-0.24,0.229-0.472,0.38-0.693
		c0.152-0.221,0.339-0.415,0.561-0.58c0.222-0.165,0.484-0.297,0.788-0.399c0.305-0.101,0.659-0.152,1.064-0.152
		c1.025,0,1.85,0.326,2.471,0.979c0.619,0.652,0.93,1.574,0.93,2.765v6.289h-1.52V8.189c0-0.899-0.196-1.567-0.589-2.004
		s-0.969-0.656-1.729-0.656c-0.304,0-0.602,0.038-0.893,0.114s-0.551,0.19-0.779,0.342c-0.228,0.152-0.411,0.349-0.551,0.589
		c-0.139,0.241-0.209,0.52-0.209,0.836v6.802H632.091z"/>
	<path class="st0" d="M655.403,14.212c-0.748,0-1.295-0.208-1.644-0.625s-0.522-0.954-0.522-1.611V5.719h-3.268V4.408h2.432
		c0.329,0,0.561-0.067,0.693-0.2s0.199-0.364,0.199-0.693V0.95h1.463v3.458h4.465v1.311h-4.465v7.182h4.465v1.311H655.403z"/>
	<path class="st0" d="M670.242,12.901h3.534V5.719h-3.534V4.408h5.054v8.493h3.307v1.311h-8.36V12.901z M674.536,2.242
		c-0.443,0-0.754-0.092-0.932-0.276c-0.177-0.183-0.266-0.415-0.266-0.693V0.969c0-0.279,0.089-0.51,0.266-0.694
		C673.782,0.092,674.093,0,674.536,0s0.754,0.092,0.931,0.275c0.177,0.184,0.267,0.415,0.267,0.694v0.304
		c0,0.279-0.09,0.51-0.267,0.693C675.29,2.15,674.979,2.242,674.536,2.242z"/>
	<path class="st0" d="M714.303,12.616h-0.076c-0.634,1.216-1.641,1.824-3.021,1.824c-1.204,0-2.145-0.449-2.822-1.349
		s-1.016-2.16-1.016-3.781c0-1.621,0.338-2.881,1.016-3.781c0.678-0.899,1.618-1.349,2.822-1.349c1.38,0,2.387,0.608,3.021,1.824
		h0.076V0.152h1.521v14.06h-1.521V12.616z M711.794,13.091c0.343,0,0.666-0.044,0.97-0.133c0.304-0.088,0.569-0.218,0.798-0.39
		c0.229-0.171,0.408-0.38,0.541-0.627c0.133-0.247,0.2-0.535,0.2-0.864V7.543c0-0.329-0.067-0.618-0.2-0.864
		c-0.133-0.247-0.312-0.456-0.541-0.627c-0.229-0.171-0.494-0.3-0.798-0.389c-0.304-0.088-0.627-0.133-0.97-0.133
		c-0.887,0-1.573,0.27-2.061,0.808c-0.488,0.539-0.732,1.251-0.732,2.138v1.672c0,0.887,0.244,1.6,0.732,2.138
		C710.221,12.822,710.907,13.091,711.794,13.091z"/>
	<path class="st0" d="M731.099,14.44c-0.709,0-1.346-0.121-1.91-0.361c-0.562-0.241-1.045-0.586-1.443-1.036
		c-0.398-0.449-0.707-0.988-0.922-1.615c-0.215-0.627-0.322-1.327-0.322-2.1c0-0.785,0.11-1.495,0.332-2.128
		s0.529-1.175,0.922-1.625s0.864-0.795,1.415-1.036c0.552-0.241,1.162-0.361,1.833-0.361c0.659,0,1.258,0.12,1.796,0.361
		s0.997,0.573,1.378,0.998c0.38,0.424,0.671,0.928,0.874,1.511c0.202,0.583,0.304,1.222,0.304,1.919V9.69h-7.258v0.456
		c0,0.431,0.069,0.83,0.209,1.197c0.139,0.367,0.338,0.684,0.598,0.95s0.577,0.472,0.951,0.618c0.373,0.146,0.788,0.218,1.244,0.218
		c0.658,0,1.229-0.152,1.71-0.456c0.481-0.304,0.849-0.722,1.103-1.254l1.121,0.76c-0.292,0.659-0.777,1.2-1.454,1.625
		C732.9,14.228,732.073,14.44,731.099,14.44z M731.003,5.434c-0.418,0-0.804,0.076-1.158,0.228
		c-0.355,0.152-0.662,0.361-0.922,0.627s-0.463,0.58-0.607,0.94c-0.146,0.361-0.219,0.757-0.219,1.188V8.55h5.624V8.341
		c0-0.431-0.067-0.823-0.2-1.178c-0.133-0.354-0.316-0.662-0.551-0.921s-0.52-0.459-0.854-0.599
		C731.779,5.504,731.409,5.434,731.003,5.434z"/>
	<path class="st0" d="M745.747,12.901h3.42V1.463h-3.42V0.152h4.94v12.749h3.42v1.311h-8.36V12.901z"/>
	<path class="st0" d="M783.804,12.901h3.307V5.719h-3.496V4.408h3.496V2.394c0-0.658,0.174-1.197,0.521-1.615
		c0.35-0.418,0.896-0.627,1.645-0.627h3.287v1.311h-3.934v2.945h3.934v1.311h-3.934v7.182h3.496v1.311h-8.322V12.901z"/>
	<path class="st0" d="M807.099,14.44c-0.71,0-1.347-0.121-1.91-0.361c-0.563-0.241-1.045-0.586-1.443-1.036
		c-0.399-0.449-0.707-0.988-0.922-1.615c-0.216-0.627-0.323-1.327-0.323-2.1c0-0.785,0.11-1.495,0.333-2.128
		c0.221-0.633,0.528-1.175,0.921-1.625s0.864-0.795,1.415-1.036c0.552-0.241,1.162-0.361,1.834-0.361
		c0.658,0,1.258,0.12,1.795,0.361c0.539,0.241,0.998,0.573,1.379,0.998c0.379,0.424,0.67,0.928,0.873,1.511
		c0.203,0.583,0.305,1.222,0.305,1.919V9.69h-7.258v0.456c0,0.431,0.068,0.83,0.209,1.197c0.139,0.367,0.338,0.684,0.598,0.95
		s0.576,0.472,0.95,0.618s0.788,0.218,1.245,0.218c0.658,0,1.229-0.152,1.709-0.456c0.481-0.304,0.85-0.722,1.103-1.254l1.121,0.76
		c-0.292,0.659-0.776,1.2-1.454,1.625S808.073,14.44,807.099,14.44z M807.003,5.434c-0.418,0-0.805,0.076-1.158,0.228
		c-0.355,0.152-0.662,0.361-0.922,0.627s-0.463,0.58-0.608,0.94s-0.218,0.757-0.218,1.188V8.55h5.623V8.341
		c0-0.431-0.066-0.823-0.199-1.178c-0.133-0.354-0.316-0.662-0.551-0.921s-0.52-0.459-0.855-0.599
		C807.778,5.504,807.408,5.434,807.003,5.434z"/>
	<path class="st0" d="M822.089,14.212V4.408h1.52v1.596h0.076c0.102-0.24,0.229-0.472,0.38-0.693
		c0.152-0.221,0.339-0.415,0.561-0.58c0.222-0.165,0.484-0.297,0.788-0.399c0.305-0.101,0.659-0.152,1.064-0.152
		c1.025,0,1.85,0.326,2.471,0.979c0.619,0.652,0.93,1.574,0.93,2.765v6.289h-1.52V8.189c0-0.899-0.196-1.567-0.589-2.004
		s-0.969-0.656-1.729-0.656c-0.304,0-0.602,0.038-0.893,0.114s-0.551,0.19-0.779,0.342c-0.228,0.152-0.411,0.349-0.551,0.589
		c-0.139,0.241-0.209,0.52-0.209,0.836v6.802H822.089z"/>
	<path class="st0" d="M844.927,14.44c-0.684,0-1.302-0.121-1.853-0.361c-0.552-0.241-1.021-0.586-1.406-1.036
		c-0.386-0.449-0.681-0.988-0.884-1.615c-0.202-0.627-0.304-1.333-0.304-2.119c0-0.772,0.102-1.476,0.304-2.109
		c0.203-0.633,0.498-1.175,0.884-1.625s0.854-0.795,1.406-1.036c0.551-0.241,1.169-0.361,1.853-0.361s1.301,0.12,1.853,0.361
		c0.551,0.241,1.019,0.586,1.405,1.036s0.682,0.991,0.884,1.625s0.304,1.336,0.304,2.109c0,0.786-0.102,1.491-0.304,2.119
		c-0.202,0.627-0.497,1.166-0.884,1.615c-0.387,0.45-0.854,0.795-1.405,1.036C846.228,14.319,845.61,14.44,844.927,14.44z
		 M844.927,13.129c0.848,0,1.532-0.253,2.052-0.76c0.519-0.506,0.778-1.292,0.778-2.356V8.607c0-1.064-0.26-1.849-0.778-2.356
		c-0.52-0.506-1.204-0.76-2.052-0.76c-0.85,0-1.533,0.253-2.053,0.76c-0.52,0.507-0.778,1.292-0.778,2.356v1.406
		c0,1.064,0.259,1.85,0.778,2.356C843.394,12.876,844.077,13.129,844.927,13.129z"/>
	<path class="st0" d="M859.253,14.212V4.408h1.406v1.14h0.075c0.152-0.38,0.367-0.703,0.646-0.969
		c0.279-0.266,0.691-0.399,1.236-0.399c0.569,0,0.994,0.143,1.272,0.427c0.278,0.285,0.449,0.656,0.513,1.112h0.057
		c0.178-0.443,0.432-0.811,0.761-1.102s0.785-0.437,1.368-0.437c0.798,0,1.332,0.279,1.605,0.836
		c0.271,0.558,0.408,1.355,0.408,2.394v6.802h-1.406V7.657c0-0.836-0.086-1.415-0.256-1.738c-0.172-0.323-0.484-0.484-0.941-0.484
		c-0.405,0-0.734,0.13-0.987,0.39c-0.254,0.26-0.38,0.655-0.38,1.188v7.201h-1.406V7.657c0-0.836-0.086-1.415-0.256-1.738
		c-0.172-0.323-0.479-0.484-0.922-0.484c-0.406,0-0.738,0.13-0.998,0.39s-0.389,0.655-0.389,1.188v7.201H859.253z"/>
	<path class="st0" d="M883.097,14.44c-0.709,0-1.346-0.121-1.909-0.361c-0.563-0.241-1.045-0.586-1.444-1.036
		c-0.398-0.449-0.706-0.988-0.921-1.615c-0.216-0.627-0.323-1.327-0.323-2.1c0-0.785,0.111-1.495,0.332-2.128
		c0.223-0.633,0.529-1.175,0.922-1.625s0.865-0.795,1.416-1.036s1.162-0.361,1.833-0.361c0.659,0,1.257,0.12,1.796,0.361
		c0.538,0.241,0.997,0.573,1.377,0.998c0.381,0.424,0.672,0.928,0.875,1.511c0.201,0.583,0.303,1.222,0.303,1.919V9.69h-7.258v0.456
		c0,0.431,0.07,0.83,0.209,1.197c0.14,0.367,0.339,0.684,0.599,0.95s0.577,0.472,0.95,0.618s0.789,0.218,1.244,0.218
		c0.658,0,1.229-0.152,1.711-0.456c0.48-0.304,0.848-0.722,1.102-1.254l1.121,0.76c-0.291,0.659-0.776,1.2-1.453,1.625
		C884.899,14.228,884.072,14.44,883.097,14.44z M883.002,5.434c-0.418,0-0.804,0.076-1.159,0.228
		c-0.354,0.152-0.662,0.361-0.922,0.627s-0.462,0.58-0.607,0.94s-0.219,0.757-0.219,1.188V8.55h5.625V8.341
		c0-0.431-0.067-0.823-0.2-1.178c-0.133-0.354-0.317-0.662-0.551-0.921c-0.235-0.26-0.52-0.459-0.854-0.599
		C883.778,5.504,883.407,5.434,883.002,5.434z"/>
	<path class="st0" d="M898.088,14.212V4.408h1.521v1.596h0.076c0.101-0.24,0.228-0.472,0.379-0.693
		c0.152-0.221,0.34-0.415,0.561-0.58c0.223-0.165,0.484-0.297,0.789-0.399c0.305-0.101,0.658-0.152,1.064-0.152
		c1.025,0,1.849,0.326,2.47,0.979c0.62,0.652,0.931,1.574,0.931,2.765v6.289h-1.52V8.189c0-0.899-0.197-1.567-0.59-2.004
		s-0.969-0.656-1.729-0.656c-0.305,0-0.602,0.038-0.893,0.114c-0.292,0.076-0.551,0.19-0.779,0.342
		c-0.229,0.152-0.412,0.349-0.551,0.589c-0.14,0.241-0.209,0.52-0.209,0.836v6.802H898.088z"/>
	<path class="st0" d="M920.927,14.44c-0.685,0-1.303-0.121-1.854-0.361c-0.551-0.241-1.02-0.586-1.406-1.036
		c-0.386-0.449-0.681-0.988-0.883-1.615c-0.203-0.627-0.305-1.333-0.305-2.119c0-0.772,0.102-1.476,0.305-2.109
		c0.202-0.633,0.497-1.175,0.883-1.625c0.387-0.45,0.855-0.795,1.406-1.036s1.169-0.361,1.854-0.361c0.684,0,1.301,0.12,1.852,0.361
		s1.02,0.586,1.406,1.036s0.681,0.991,0.883,1.625c0.203,0.633,0.305,1.336,0.305,2.109c0,0.786-0.102,1.491-0.305,2.119
		c-0.202,0.627-0.496,1.166-0.883,1.615c-0.387,0.45-0.855,0.795-1.406,1.036C922.228,14.319,921.61,14.44,920.927,14.44z
		 M920.927,13.129c0.848,0,1.531-0.253,2.051-0.76c0.52-0.506,0.779-1.292,0.779-2.356V8.607c0-1.064-0.26-1.849-0.779-2.356
		c-0.52-0.506-1.203-0.76-2.051-0.76c-0.85,0-1.533,0.253-2.053,0.76c-0.52,0.507-0.779,1.292-0.779,2.356v1.406
		c0,1.064,0.26,1.85,0.779,2.356C919.394,12.876,920.077,13.129,920.927,13.129z"/>
</g>
<g>
	<rect x="0.001" y="7.175" transform="matrix(1 -0.0034 0.0034 1 -0.0251 0.3297)" class="st0" width="191.502" height="0.567"/>
</g>
<g>
	<rect x="967.001" y="7.93" class="st0" width="185" height="0.567"/>
</g>
</svg>