<!-- Generator: Adobe Illustrator 21.1.0, SVG Export Plug-In  -->
<svg version="1.1"
	 xmlns="http://www.w3.org/2000/svg" xmlns:xlink="http://www.w3.org/1999/xlink" xmlns:a="http://ns.adobe.com/AdobeSVGViewerExtensions/3.0/"
	 x="0px" y="0px" width="425.314px" height="324.297px" viewBox="0 0 425.314 324.297"
	 style="enable-background:new 0 0 425.314 324.297;" xml:space="preserve">
<style type="text/css">
	.st0{fill:none;stroke:#FFFFFF;stroke-width:1.7008;stroke-miterlimit:10;}
	.st1{fill:none;stroke:#FFFFFF;stroke-width:1.4173;stroke-miterlimit:10;}
</style>
<defs>
</defs>
<g>
	<path class="st0" d="M382.317,225.978H42.998V12.17c0-6.251,5.068-11.319,11.319-11.319h316.681
		c6.251,0,11.319,5.068,11.319,11.319V225.978z"/>
	<rect x="61.912" y="16.361" class="st1" width="301.489" height="189.297"/>
	<polyline class="st0" points="382.317,225.978 423.912,305.829 212.657,305.829 1.402,305.829 42.998,225.978 	"/>
	<path class="st0" d="M413.955,323.446H11.359c-5.499,0-9.957-4.458-9.957-9.957v-7.66h422.511v7.66
		C423.912,318.988,419.454,323.446,413.955,323.446z"/>
	<polygon class="st1" points="369.614,234.519 390.934,275.446 212.657,275.446 34.38,275.446 55.7,234.519 	"/>
	<polygon class="st1" points="262.741,275.446 274.977,298.935 212.657,298.935 150.338,298.935 162.574,275.446 	"/>
</g>
<path class="st1" d="M269.057,108.849L168.506,62.874c-3.324-1.52-7.106,0.909-7.106,4.565v91.951c0,3.655,3.782,6.085,7.106,4.565
	l100.551-45.976C272.966,116.191,272.966,110.637,269.057,108.849z"/>
</svg>