<!-- Generator: Adobe Illustrator 21.1.0, SVG Export Plug-In  -->
<svg version="1.1"
	 xmlns="http://www.w3.org/2000/svg" xmlns:xlink="http://www.w3.org/1999/xlink" xmlns:a="http://ns.adobe.com/AdobeSVGViewerExtensions/3.0/"
	 x="0px" y="0px" width="418.382px" height="307.806px" viewBox="0 0 418.382 307.806"
	 style="enable-background:new 0 0 418.382 307.806;" xml:space="preserve">
<style type="text/css">
	.st0{fill:none;stroke:#FFFFFF;stroke-width:1.7008;stroke-miterlimit:10;}
</style>
<defs>
</defs>
<circle class="st0" cx="60.974" cy="169.085" r="34.27"/>
<path class="st0" d="M174.107,176.014c0-19.437,15.763-35.154,35.154-35.154c19.437,0,35.154,15.763,35.154,35.154
	s-15.763,35.154-35.154,35.154C189.87,211.214,174.107,195.45,174.107,176.014z"/>
<path class="st0" d="M323.044,169.085c0-18.925,15.345-34.27,34.27-34.27s34.27,15.345,34.27,34.27s-15.345,34.27-34.27,34.27
	S323.044,187.964,323.044,169.085z"/>
<path class="st0" d="M231.332,203.355c31.434,5.533,55.35,30.132,55.35,49.661c0,0.372,0,24.226-0.047,28.365
	c1.581-0.232,3.162-0.465,4.743-0.698v-19.948c0-18.135,19.39-42.454,45.011-56.311c0,0,4.367-2.879,8.233-3.514"/>
<path class="st0" d="M73.575,200.953c1.278-0.485,8.184,3.426,8.184,3.426c25.575,13.857,45.011,38.176,45.011,56.311v19.948
	c1.674,0.279,3.348,0.512,5.068,0.744c0-6.742,0-28.039,0-28.365c0-19.53,25.268-43.058,56.701-48.592"/>
<path class="st0" d="M382.637,192.173c3-0.188,7.32,1.463,7.32,1.463c14.089,3.348,24.04,13.95,26.644,26.272
	c0,0,0.93,11.485,0.883,11.95c0,0.465,0.047,0.883,0.047,1.348c0,40.733-93.278,73.748-208.364,73.748S0.85,273.895,0.85,233.161
	c0-0.465,0-0.883,0.046-1.348c-0.046-0.465,0.511-13.345,0.604-12.973c2.464-12.276,12.462-22.227,26.644-25.342
	c0,0,4.115-1.256,7.506-1.324"/>
<path class="st0" d="M103.196,63.452c19.948,1.813,33.433,19.935,33.433,33.792v11.113c-55.846,7.114-100.671,22.227-123.13,41.338
	v-25.017c0-32.913,43.616-54.101,45.151-54.473"/>
<path class="st0" d="M229.809,52.678c27.295,4.557,45.527,27.826,45.527,44.659v10.323c-20.878-2.418-43.244-3.72-66.448-3.72
	c-22.878,0-44.872,1.255-65.471,3.627l0-10.23c0-16.507,18.665-39.544,45.123-44.38"/>
<path class="st0" d="M179.454,30.796c0-16.554,13.438-29.946,29.946-29.946s29.946,13.438,29.946,29.946
	S225.907,60.742,209.4,60.742S179.454,47.35,179.454,30.796z"/>
<path class="st0" d="M357.315,72.599c1.534,0.418,47.755,18.401,47.755,52.079v25.575c-22.18-19.344-67.052-34.596-123.13-41.803
	l-0.047-11.206c0-13.857,16.61-28.056,36.605-29.823"/>
<path class="st0" d="M107.752,47.35c0,16.554-13.392,29.946-29.946,29.946S47.861,63.857,47.861,47.35
	c0-16.554,13.438-29.946,29.946-29.946C94.314,17.404,107.752,30.796,107.752,47.35z"/>
<path class="st0" d="M310.769,47.35c0-16.554,13.438-29.946,29.946-29.946S370.66,30.796,370.66,47.35s-13.438,29.946-29.946,29.946
	S310.769,63.904,310.769,47.35z"/>
</svg>