<!-- Generator: Adobe Illustrator 21.1.0, SVG Export Plug-In  -->
<svg version="1.1"
	 xmlns="http://www.w3.org/2000/svg" xmlns:xlink="http://www.w3.org/1999/xlink" xmlns:a="http://ns.adobe.com/AdobeSVGViewerExtensions/3.0/"
	 x="0px" y="0px" width="1156px" height="14.44px" viewBox="0 0 1156 14.44" style="enable-background:new 0 0 1156 14.44;"
	 xml:space="preserve">
<style type="text/css">
	.st0{fill:#FFFFFF;}
</style>
<defs>
</defs>
<g>
	<path class="st0" d="M387.443,12.901h3.534V5.719h-3.534V4.408h5.055v8.493h3.306v1.311h-8.36V12.901z M391.738,2.242
		c-0.444,0-0.754-0.092-0.932-0.276c-0.178-0.183-0.266-0.415-0.266-0.694V0.969c0-0.279,0.088-0.51,0.266-0.694
		C390.984,0.092,391.294,0,391.738,0c0.443,0,0.753,0.092,0.93,0.275c0.178,0.184,0.267,0.415,0.267,0.694v0.304
		c0,0.279-0.089,0.51-0.267,0.694C392.491,2.15,392.182,2.242,391.738,2.242z"/>
	<path class="st0" d="M405.949,12.901h3.42V1.463h-3.42V0.152h4.94v12.749h3.42v1.311h-8.36V12.901z"/>
	<path class="st0" d="M444.006,12.901h3.307V5.719h-3.496V4.408h3.496V2.394c0-0.658,0.174-1.197,0.521-1.615
		c0.35-0.418,0.896-0.627,1.645-0.627h3.287v1.311h-3.934v2.945h3.934v1.311h-3.934v7.182h3.496v1.311h-8.322V12.901z"/>
	<path class="st0" d="M467.301,14.44c-0.71,0-1.347-0.121-1.91-0.361c-0.563-0.24-1.045-0.586-1.443-1.036
		c-0.399-0.449-0.707-0.988-0.922-1.615c-0.216-0.627-0.323-1.327-0.323-2.1c0-0.785,0.11-1.495,0.333-2.128
		c0.221-0.633,0.528-1.175,0.921-1.625s0.864-0.795,1.415-1.036c0.552-0.24,1.162-0.361,1.834-0.361c0.658,0,1.258,0.12,1.795,0.361
		c0.539,0.241,0.998,0.573,1.379,0.998c0.379,0.424,0.67,0.928,0.873,1.51c0.203,0.583,0.305,1.222,0.305,1.919V9.69h-7.258v0.456
		c0,0.431,0.068,0.83,0.209,1.197c0.139,0.367,0.338,0.684,0.598,0.95s0.576,0.472,0.95,0.618s0.788,0.218,1.245,0.218
		c0.658,0,1.229-0.152,1.709-0.456c0.481-0.304,0.85-0.722,1.103-1.254l1.121,0.76c-0.292,0.659-0.776,1.2-1.454,1.625
		C469.102,14.228,468.275,14.44,467.301,14.44z M467.205,5.434c-0.418,0-0.805,0.076-1.158,0.228
		c-0.355,0.152-0.662,0.361-0.922,0.627s-0.463,0.58-0.608,0.94c-0.146,0.361-0.218,0.757-0.218,1.188V8.55h5.623V8.341
		c0-0.43-0.066-0.823-0.199-1.178c-0.133-0.354-0.316-0.662-0.551-0.921s-0.52-0.459-0.855-0.599
		C467.98,5.504,467.61,5.434,467.205,5.434z"/>
	<path class="st0" d="M482.291,14.212V4.408h1.52v1.596h0.076c0.102-0.24,0.229-0.472,0.38-0.693
		c0.152-0.221,0.339-0.415,0.561-0.58c0.222-0.165,0.484-0.297,0.788-0.399c0.305-0.101,0.659-0.152,1.064-0.152
		c1.025,0,1.85,0.326,2.471,0.979c0.619,0.652,0.93,1.574,0.93,2.764v6.289h-1.52V8.189c0-0.899-0.196-1.567-0.589-2.004
		s-0.969-0.656-1.729-0.656c-0.304,0-0.602,0.038-0.893,0.114c-0.291,0.076-0.551,0.19-0.779,0.342
		c-0.228,0.152-0.411,0.349-0.551,0.589c-0.139,0.241-0.209,0.52-0.209,0.836v6.802H482.291z"/>
	<path class="st0" d="M505.129,14.44c-0.684,0-1.302-0.121-1.853-0.361c-0.552-0.24-1.021-0.586-1.406-1.036
		c-0.386-0.449-0.681-0.988-0.884-1.615c-0.202-0.627-0.304-1.333-0.304-2.119c0-0.772,0.102-1.476,0.304-2.109
		c0.203-0.633,0.498-1.175,0.884-1.625s0.854-0.795,1.406-1.036c0.551-0.24,1.169-0.361,1.853-0.361s1.301,0.12,1.853,0.361
		c0.551,0.241,1.019,0.586,1.405,1.036s0.682,0.991,0.884,1.625s0.304,1.336,0.304,2.109c0,0.786-0.102,1.491-0.304,2.119
		c-0.202,0.627-0.497,1.166-0.884,1.615c-0.387,0.45-0.854,0.795-1.405,1.036C506.43,14.319,505.812,14.44,505.129,14.44z
		 M505.129,13.129c0.848,0,1.532-0.253,2.052-0.76c0.519-0.507,0.778-1.292,0.778-2.356V8.607c0-1.064-0.26-1.849-0.778-2.356
		c-0.52-0.506-1.204-0.76-2.052-0.76c-0.85,0-1.533,0.253-2.053,0.76c-0.52,0.507-0.778,1.292-0.778,2.356v1.406
		c0,1.064,0.259,1.849,0.778,2.356C503.596,12.876,504.279,13.129,505.129,13.129z"/>
	<path class="st0" d="M519.455,14.212V4.408h1.406v1.14h0.075c0.152-0.38,0.367-0.703,0.646-0.969
		c0.279-0.266,0.691-0.399,1.236-0.399c0.569,0,0.994,0.142,1.272,0.427c0.278,0.285,0.449,0.656,0.513,1.112h0.057
		c0.178-0.443,0.432-0.81,0.761-1.102s0.785-0.437,1.368-0.437c0.798,0,1.332,0.279,1.605,0.836
		c0.271,0.558,0.408,1.355,0.408,2.394v6.802h-1.406V7.657c0-0.836-0.086-1.415-0.256-1.739c-0.172-0.323-0.484-0.484-0.941-0.484
		c-0.405,0-0.734,0.13-0.987,0.389c-0.254,0.26-0.38,0.656-0.38,1.188v7.201h-1.406V7.657c0-0.836-0.086-1.415-0.256-1.739
		c-0.172-0.323-0.479-0.484-0.922-0.484c-0.406,0-0.738,0.13-0.998,0.389c-0.26,0.26-0.389,0.656-0.389,1.188v7.201H519.455z"/>
	<path class="st0" d="M543.299,14.44c-0.709,0-1.346-0.121-1.909-0.361c-0.563-0.24-1.045-0.586-1.444-1.036
		c-0.398-0.449-0.706-0.988-0.921-1.615c-0.216-0.627-0.323-1.327-0.323-2.1c0-0.785,0.111-1.495,0.332-2.128
		c0.223-0.633,0.529-1.175,0.922-1.625s0.865-0.795,1.416-1.036c0.551-0.24,1.162-0.361,1.833-0.361c0.659,0,1.257,0.12,1.796,0.361
		c0.538,0.241,0.997,0.573,1.377,0.998c0.381,0.424,0.672,0.928,0.875,1.51c0.201,0.583,0.303,1.222,0.303,1.919V9.69h-7.258v0.456
		c0,0.431,0.07,0.83,0.209,1.197c0.14,0.367,0.339,0.684,0.599,0.95s0.577,0.472,0.95,0.618s0.789,0.218,1.244,0.218
		c0.658,0,1.229-0.152,1.711-0.456c0.48-0.304,0.848-0.722,1.102-1.254l1.121,0.76c-0.291,0.659-0.776,1.2-1.453,1.625
		C545.102,14.228,544.274,14.44,543.299,14.44z M543.204,5.434c-0.418,0-0.804,0.076-1.159,0.228
		c-0.354,0.152-0.662,0.361-0.922,0.627s-0.462,0.58-0.607,0.94c-0.146,0.361-0.219,0.757-0.219,1.188V8.55h5.625V8.341
		c0-0.43-0.067-0.823-0.2-1.178c-0.133-0.354-0.317-0.662-0.551-0.921c-0.235-0.26-0.52-0.459-0.854-0.599
		C543.98,5.504,543.609,5.434,543.204,5.434z"/>
	<path class="st0" d="M558.29,14.212V4.408h1.521v1.596h0.076c0.101-0.24,0.228-0.472,0.379-0.693
		c0.152-0.221,0.34-0.415,0.561-0.58c0.223-0.165,0.484-0.297,0.789-0.399c0.305-0.101,0.658-0.152,1.064-0.152
		c1.025,0,1.849,0.326,2.47,0.979c0.62,0.652,0.931,1.574,0.931,2.764v6.289h-1.52V8.189c0-0.899-0.197-1.567-0.59-2.004
		s-0.969-0.656-1.729-0.656c-0.305,0-0.602,0.038-0.893,0.114c-0.292,0.076-0.551,0.19-0.779,0.342
		c-0.229,0.152-0.412,0.349-0.551,0.589c-0.14,0.241-0.209,0.52-0.209,0.836v6.802H558.29z"/>
	<path class="st0" d="M581.128,14.44c-0.685,0-1.302-0.121-1.853-0.361c-0.551-0.24-1.02-0.586-1.406-1.036
		c-0.387-0.449-0.682-0.988-0.883-1.615c-0.203-0.627-0.305-1.333-0.305-2.119c0-0.772,0.102-1.476,0.305-2.109
		c0.201-0.633,0.496-1.175,0.883-1.625s0.855-0.795,1.406-1.036c0.551-0.24,1.168-0.361,1.853-0.361c0.684,0,1.302,0.12,1.853,0.361
		c0.551,0.241,1.02,0.586,1.406,1.036c0.386,0.45,0.68,0.991,0.883,1.625s0.305,1.336,0.305,2.109c0,0.786-0.102,1.491-0.305,2.119
		c-0.203,0.627-0.497,1.166-0.883,1.615c-0.387,0.45-0.855,0.795-1.406,1.036C582.43,14.319,581.812,14.44,581.128,14.44z
		 M581.128,13.129c0.849,0,1.532-0.253,2.052-0.76c0.52-0.507,0.779-1.292,0.779-2.356V8.607c0-1.064-0.26-1.849-0.779-2.356
		c-0.52-0.506-1.203-0.76-2.052-0.76s-1.533,0.253-2.052,0.76c-0.52,0.507-0.779,1.292-0.779,2.356v1.406
		c0,1.064,0.26,1.849,0.779,2.356C579.595,12.876,580.279,13.129,581.128,13.129z"/>
	<path class="st0" d="M615.289,14.212V4.408h1.521v1.596h0.076c0.101-0.24,0.228-0.472,0.38-0.693
		c0.152-0.221,0.339-0.415,0.561-0.58c0.222-0.165,0.484-0.297,0.789-0.399c0.304-0.101,0.658-0.152,1.063-0.152
		c1.026,0,1.849,0.326,2.47,0.979s0.932,1.574,0.932,2.764v6.289h-1.521V8.189c0-0.899-0.196-1.567-0.589-2.004
		s-0.969-0.656-1.729-0.656c-0.305,0-0.602,0.038-0.894,0.114c-0.292,0.076-0.551,0.19-0.778,0.342
		c-0.229,0.152-0.412,0.349-0.552,0.589s-0.209,0.52-0.209,0.836v6.802H615.289z"/>
	<path class="st0" d="M638.299,14.44c-0.71,0-1.347-0.121-1.91-0.361c-0.563-0.24-1.045-0.586-1.443-1.036
		c-0.399-0.449-0.707-0.988-0.922-1.615c-0.216-0.627-0.323-1.327-0.323-2.1c0-0.785,0.11-1.495,0.333-2.128
		c0.221-0.633,0.528-1.175,0.921-1.625s0.864-0.795,1.415-1.036c0.552-0.24,1.162-0.361,1.834-0.361c0.658,0,1.258,0.12,1.795,0.361
		c0.539,0.241,0.998,0.573,1.379,0.998c0.379,0.424,0.67,0.928,0.873,1.51c0.203,0.583,0.305,1.222,0.305,1.919V9.69h-7.258v0.456
		c0,0.431,0.068,0.83,0.209,1.197c0.139,0.367,0.338,0.684,0.598,0.95s0.576,0.472,0.95,0.618s0.788,0.218,1.245,0.218
		c0.658,0,1.229-0.152,1.709-0.456c0.481-0.304,0.85-0.722,1.103-1.254l1.121,0.76c-0.292,0.659-0.776,1.2-1.454,1.625
		C640.1,14.228,639.273,14.44,638.299,14.44z M638.203,5.434c-0.418,0-0.805,0.076-1.158,0.228
		c-0.355,0.152-0.662,0.361-0.922,0.627s-0.463,0.58-0.608,0.94c-0.146,0.361-0.218,0.757-0.218,1.188V8.55h5.623V8.341
		c0-0.43-0.066-0.823-0.199-1.178c-0.133-0.354-0.316-0.662-0.551-0.921s-0.52-0.459-0.855-0.599
		C638.979,5.504,638.608,5.434,638.203,5.434z"/>
	<path class="st0" d="M652.947,12.901h3.42V1.463h-3.42V0.152h4.939v12.749h3.42v1.311h-8.359V12.901z"/>
	<path class="st0" d="M690.453,14.212V4.408h1.406v1.14h0.075c0.152-0.38,0.367-0.703,0.646-0.969
		c0.279-0.266,0.691-0.399,1.236-0.399c0.569,0,0.994,0.142,1.272,0.427c0.278,0.285,0.449,0.656,0.513,1.112h0.057
		c0.178-0.443,0.432-0.81,0.761-1.102s0.785-0.437,1.368-0.437c0.798,0,1.332,0.279,1.605,0.836
		c0.271,0.558,0.408,1.355,0.408,2.394v6.802h-1.406V7.657c0-0.836-0.086-1.415-0.256-1.739c-0.172-0.323-0.484-0.484-0.941-0.484
		c-0.405,0-0.734,0.13-0.987,0.389c-0.254,0.26-0.38,0.656-0.38,1.188v7.201h-1.406V7.657c0-0.836-0.086-1.415-0.256-1.739
		c-0.172-0.323-0.479-0.484-0.922-0.484c-0.406,0-0.738,0.13-0.998,0.389c-0.26,0.26-0.389,0.656-0.389,1.188v7.201H690.453z"/>
	<path class="st0" d="M714.127,14.44c-0.684,0-1.302-0.121-1.853-0.361c-0.552-0.24-1.021-0.586-1.406-1.036
		c-0.386-0.449-0.681-0.988-0.884-1.615c-0.202-0.627-0.304-1.333-0.304-2.119c0-0.772,0.102-1.476,0.304-2.109
		c0.203-0.633,0.498-1.175,0.884-1.625s0.854-0.795,1.406-1.036c0.551-0.24,1.169-0.361,1.853-0.361s1.301,0.12,1.853,0.361
		c0.551,0.241,1.019,0.586,1.405,1.036s0.682,0.991,0.884,1.625s0.304,1.336,0.304,2.109c0,0.786-0.102,1.491-0.304,2.119
		c-0.202,0.627-0.497,1.166-0.884,1.615c-0.387,0.45-0.854,0.795-1.405,1.036C715.428,14.319,714.811,14.44,714.127,14.44z
		 M714.127,13.129c0.848,0,1.532-0.253,2.052-0.76c0.519-0.507,0.778-1.292,0.778-2.356V8.607c0-1.064-0.26-1.849-0.778-2.356
		c-0.52-0.506-1.204-0.76-2.052-0.76c-0.85,0-1.533,0.253-2.053,0.76c-0.52,0.507-0.778,1.292-0.778,2.356v1.406
		c0,1.064,0.259,1.849,0.778,2.356C712.594,12.876,713.277,13.129,714.127,13.129z"/>
	<path class="st0" d="M729.289,14.212V4.408h1.52v1.596h0.076c0.102-0.24,0.229-0.472,0.38-0.693
		c0.152-0.221,0.339-0.415,0.561-0.58c0.222-0.165,0.484-0.297,0.788-0.399c0.305-0.101,0.659-0.152,1.064-0.152
		c1.025,0,1.85,0.326,2.471,0.979c0.619,0.652,0.93,1.574,0.93,2.764v6.289h-1.52V8.189c0-0.899-0.196-1.567-0.589-2.004
		s-0.969-0.656-1.729-0.656c-0.304,0-0.602,0.038-0.893,0.114c-0.291,0.076-0.551,0.19-0.779,0.342
		c-0.228,0.152-0.411,0.349-0.551,0.589c-0.139,0.241-0.209,0.52-0.209,0.836v6.802H729.289z"/>
	<path class="st0" d="M754.502,12.616h-0.076c-0.635,1.216-1.641,1.824-3.021,1.824c-1.203,0-2.145-0.449-2.821-1.349
		c-0.679-0.899-1.017-2.159-1.017-3.781c0-1.621,0.338-2.881,1.017-3.781c0.677-0.899,1.618-1.349,2.821-1.349
		c1.381,0,2.387,0.608,3.021,1.824h0.076V0.152h1.52v14.06h-1.52V12.616z M751.993,13.091c0.343,0,0.665-0.044,0.97-0.133
		c0.303-0.088,0.569-0.219,0.797-0.39c0.229-0.171,0.409-0.38,0.542-0.627c0.133-0.247,0.2-0.535,0.2-0.864V7.543
		c0-0.329-0.067-0.617-0.2-0.864c-0.133-0.247-0.313-0.456-0.542-0.627c-0.228-0.171-0.494-0.301-0.797-0.389
		c-0.305-0.088-0.627-0.133-0.97-0.133c-0.887,0-1.573,0.269-2.062,0.807c-0.488,0.539-0.731,1.251-0.731,2.138v1.672
		c0,0.887,0.243,1.599,0.731,2.138S751.106,13.091,751.993,13.091z"/>
	<path class="st0" d="M771.127,14.44c-0.685,0-1.303-0.121-1.854-0.361c-0.551-0.24-1.02-0.586-1.406-1.036
		c-0.386-0.449-0.681-0.988-0.883-1.615c-0.203-0.627-0.305-1.333-0.305-2.119c0-0.772,0.102-1.476,0.305-2.109
		c0.202-0.633,0.497-1.175,0.883-1.625c0.387-0.45,0.855-0.795,1.406-1.036c0.551-0.24,1.169-0.361,1.854-0.361
		c0.684,0,1.301,0.12,1.852,0.361c0.551,0.241,1.02,0.586,1.406,1.036s0.681,0.991,0.883,1.625c0.203,0.633,0.305,1.336,0.305,2.109
		c0,0.786-0.102,1.491-0.305,2.119c-0.202,0.627-0.496,1.166-0.883,1.615c-0.387,0.45-0.855,0.795-1.406,1.036
		C772.428,14.319,771.811,14.44,771.127,14.44z M771.127,13.129c0.848,0,1.531-0.253,2.051-0.76c0.52-0.507,0.779-1.292,0.779-2.356
		V8.607c0-1.064-0.26-1.849-0.779-2.356c-0.52-0.506-1.203-0.76-2.051-0.76c-0.85,0-1.533,0.253-2.053,0.76
		c-0.52,0.507-0.779,1.292-0.779,2.356v1.406c0,1.064,0.26,1.849,0.779,2.356C769.594,12.876,770.277,13.129,771.127,13.129z"/>
</g>
<g>
	<polygon class="st0" points="0,7.991 0,7.424 362.5,6.93 362.5,7.497 	"/>
</g>
<g>
	<rect x="799.5" y="7.93" class="st0" width="356.5" height="0.567"/>
</g>
</svg>