<!-- Generator: Adobe Illustrator 21.1.0, SVG Export Plug-In  -->
<svg version="1.1"
	 xmlns="http://www.w3.org/2000/svg" xmlns:xlink="http://www.w3.org/1999/xlink" xmlns:a="http://ns.adobe.com/AdobeSVGViewerExtensions/3.0/"
	 x="0px" y="0px" width="338.878px" height="385.327px" viewBox="0 0 338.878 385.327"
	 style="enable-background:new 0 0 338.878 385.327;" xml:space="preserve">
<style type="text/css">
	.st0{fill:none;stroke:#FFFFFF;stroke-width:1.7008;stroke-miterlimit:10;}
	.st1{fill:none;stroke:#FFFFFF;stroke-width:1.4173;stroke-miterlimit:10;}
</style>
<defs>
</defs>
<path class="st0" d="M216.887,102.221L107.622,322.088c-2.448,4.418-0.851,9.984,3.567,12.431l19.316,10.703
	c4.418,2.448,9.984,0.851,12.431-3.567l128.476-209.216"/>
<path class="st0" d="M324.507,106.594c-19.468,25.54-55.232,33.617-84.155,17.591c-29.002-16.069-41.105-50.819-29.613-80.925"/>
<path class="st0" d="M219.801,26.905C239.233,1.2,275.112-6.965,304.115,9.104c29.095,16.121,41.181,51.041,29.503,81.212"/>
<path class="st1" d="M324.582,106.342L210.819,43.31c-2.462-1.364-3.361-4.495-1.996-6.957l4.105-7.408
	c1.364-2.462,4.495-3.361,6.957-1.996L333.648,89.98c2.462,1.364,3.361,4.495,1.996,6.957l-4.105,7.408
	C330.175,106.808,327.044,107.706,324.582,106.342z"/>
<path class="st1" d="M120.011,339.407c0,0-33.301,62.811-76.325,40.364c-43.024-22.447-63.6-80.435-14.341-126.576
	s63.6-87.918,64.224-140.294S73.616,2.282,29.345,0.85"/>
</svg>