<!-- Generator: Adobe Illustrator 21.1.0, SVG Export Plug-In  -->
<svg version="1.1"
	 xmlns="http://www.w3.org/2000/svg" xmlns:xlink="http://www.w3.org/1999/xlink" xmlns:a="http://ns.adobe.com/AdobeSVGViewerExtensions/3.0/"
	 x="0px" y="0px" width="304.68px" height="365.275px" viewBox="0 0 304.68 365.275"
	 style="enable-background:new 0 0 304.68 365.275;" xml:space="preserve">
<style type="text/css">
	.st0{fill:none;stroke:#FFFFFF;stroke-width:1.7008;stroke-miterlimit:10;}
	.st1{fill:none;stroke:#FFFFFF;stroke-width:1.4173;stroke-miterlimit:10;}
</style>
<defs>
</defs>
<g>
	<path class="st0" d="M0.85,0.85v363.574h302.979V0.85H0.85z M61.446,8.425c4.189,0,7.574,3.386,7.574,7.574
		s-3.386,7.574-7.574,7.574c-4.189,0-7.574-3.386-7.574-7.574S57.257,8.425,61.446,8.425z M38.723,8.425
		c4.189,0,7.574,3.386,7.574,7.574s-3.386,7.574-7.574,7.574s-7.574-3.386-7.574-7.574S34.534,8.425,38.723,8.425z M15.999,8.425
		c4.189,0,7.574,3.386,7.574,7.574s-3.386,7.574-7.574,7.574s-7.574-3.386-7.574-7.574S11.811,8.425,15.999,8.425z M296.255,356.85
		H8.425V31.148h287.83V356.85z"/>
	<rect x="46.297" y="61.446" class="st1" width="113.617" height="15.149"/>
	<rect x="46.297" y="106.893" class="st1" width="174.213" height="7.574"/>
	<rect x="46.297" y="91.744" class="st1" width="196.936" height="7.574"/>
	<rect x="46.297" y="122.042" class="st1" width="196.936" height="7.574"/>
	<rect x="46.297" y="137.191" class="st1" width="189.106" height="7.574"/>
	<rect x="46.297" y="152.34" class="st1" width="196.936" height="7.574"/>
	<rect x="46.297" y="167.489" class="st1" width="174.213" height="7.574"/>
	<rect x="46.297" y="182.638" class="st1" width="196.936" height="7.574"/>
	<rect x="46.297" y="197.787" class="st1" width="196.936" height="7.574"/>
	<rect x="46.297" y="212.936" class="st1" width="189.106" height="7.574"/>
	<rect x="46.297" y="228.084" class="st1" width="174.213" height="7.574"/>
	<rect x="46.297" y="243.233" class="st1" width="196.936" height="7.574"/>
	<rect x="46.297" y="258.382" class="st1" width="174.213" height="7.574"/>
	<rect x="46.297" y="273.531" class="st1" width="196.936" height="7.574"/>
	<rect x="46.297" y="288.68" class="st1" width="189.106" height="7.574"/>
	<rect x="46.297" y="303.829" class="st1" width="196.936" height="7.574"/>
</g>
</svg>